<svg width="34" height="31" fill="none" xmlns="http://www.w3.org/2000/svg"><path d="M19.544 20.428c.875-.548 1.685-1.059 2.5-1.563 1.308-.81 2.883-.132 3.113 1.364.119.761-.19 1.402-.836 1.829-1.497.988-3 1.968-4.531 2.907-1.431.876-3.168.03-3.456-1.645-.196-1.14-.4-2.278-.588-3.42-.042-.256-.156-.439-.417-.473-.249-.032-.405.124-.493.346-.38.965-.485 1.967-.395 2.99.14 1.574.697 3.011 1.51 4.366.516.86.411 1.84-.238 2.519-.64.67-1.624.852-2.447.457a1.838 1.838 0 0 1-.718-.596c-1.608-2.258-2.312-4.752-2.113-7.502.12-1.655.57-3.238.993-4.828.038-.142.053-.28.053-.424 0-1.59-.002-3.179 0-4.768 0-.501-.144-.946-.528-1.288-1.746-1.552-2.758-3.526-3.425-5.696a12.75 12.75 0 0 1-.448-1.914C6.908 1.899 7.657.939 8.844.81c1.133-.122 2.076.703 2.193 1.873.151 1.529.644 2.931 1.696 4.11.24.27.51.441.883.519 1.334.278 2.66.591 3.988.897.47.108.921-.038 1.378-.084.46-.046.916-.145 1.377-.19.27-.025.284-.119.201-.338-.376-.994-.75-1.99-1.105-2.99-.377-1.065.226-2.08 1.35-2.309.741-.15 1.595.257 1.886.987.728 1.832 1.45 3.668 2.108 5.525.394 1.105-.436 2.214-1.636 2.344-1.176.128-2.35.278-3.523.424-.417.051-.613.257-.618.66-.02 1.828-.076 3.658-.03 5.485.022.9.365 1.768.55 2.705l.002-.001Zm-3.768-13.29c1.698.006 3.086-1.335 3.097-2.99.01-1.636-1.395-3.015-3.077-3.019-1.67-.003-3.062 1.35-3.065 2.981-.003 1.675 1.351 3.021 3.046 3.028ZM5.412 15.59c.394.3.755.29.993-.023.224-.294.144-.645-.222-.928-.488-.378-.987-.743-1.47-1.126-.237-.189-.486-.286-.772-.154-.306.14-.373.41-.371.718.006.86-.005 1.72.006 2.58.004.276.008.47-.382.333-.185-.065-.412-.03-.618-.023-1.07.037-1.914 1.095-1.69 2.117.228 1.043 1.07 1.583 2.282 1.465.914-.089 1.635-.896 1.64-1.854.005-1.157 0-2.315 0-3.566l.605.462H5.41Zm24.972-5.405c-.755-.157-1.667.226-2.1.88-.376.566-.346 1.352.072 1.918.492.665 1.46.944 2.338.674.81-.25 1.31-.92 1.314-1.785.006-1.039 0-2.078.003-3.117 0-.11-.045-.234.064-.356.185.14.364.28.548.414.362.264.705.252.941-.027.246-.29.183-.636-.185-.927-.494-.39-.998-.766-1.496-1.151-.234-.182-.474-.293-.772-.148-.298.146-.344.399-.342.69.007.991.003 1.982.003 3.02-.15-.034-.27-.063-.388-.086ZM30.226.188c-.28.774-.8 1.269-1.579 1.56.778.287 1.294.789 1.587 1.555.29-.766.818-1.256 1.58-1.563-.804-.274-1.277-.816-1.589-1.552h.001Zm-28 1.33c-.197.603-.553.921-1.157 1.139.634.175.939.554 1.186 1.118.188-.608.553-.917 1.142-1.129-.604-.2-.941-.549-1.171-1.127Zm4.538 27.436c.191-.598.558-.917 1.136-1.141-.596-.201-.935-.537-1.14-1.107-.226.551-.532.918-1.07 1.115.524.191.848.553 1.074 1.133Zm22.57-6.142c-.171-.17-.266-.413-.444-.707-.155.596-.56.878-1.032 1.137.563.142.828.547 1.077 1.088.198-.577.531-.915 1.112-1.099-.305-.172-.55-.256-.714-.418Z" fill="#FF4D46"/></svg>