<svg width="76" height="70" fill="none" xmlns="http://www.w3.org/2000/svg"><path d="M11.596 7.961c.185.107.322-.06.477-.102 1.508-.4 2.988.587 2.993 2.144.013 4.302-.032 8.607-.096 12.91-.02 1.299-1.086 2.268-2.363 2.288-1.3.021-2.34-.943-2.362-2.286-.027-1.695.016-3.392.026-5.089.001-.24-.009-.482-.017-.863-2.135 3.27-3.636 6.659-4.487 10.3-2.202 9.427-.736 18.193 4.473 26.245 1.048 1.62 2.296 3.087 3.617 4.491.914.974 1.076 2.154.42 3.14-.635.95-1.73 1.253-3.016.834-.068-.023-.143-.028-.216-.042l-2.174-2.173c-.003-.22-.163-.347-.289-.492-1.152-1.324-2.161-2.755-3.07-4.257C1.192 47.877-.565 40.102.22 31.744c.621-6.667 2.846-12.8 6.738-18.324.75-1.064 1.547-2.097 2.323-3.143l2.316-2.316Zm54.579 51.421c.058-.253.245-.427.407-.61 1.018-1.154 1.918-2.396 2.745-3.687 4.686-7.312 6.739-15.282 6.073-23.853-.699-8.974-4.146-16.726-10.422-23.137-.932-.953-2.418-.98-3.307-.1-.947.94-.976 2.492-.064 3.458 1.356 1.437 2.647 2.934 3.716 4.598 5.695 8.893 6.934 18.462 3.774 28.664-.853 2.755-2.111 5.335-3.784 7.855-.01-.274-.023-.419-.021-.564.011-1.72.025-3.442.04-5.165.006-.896-.3-1.644-1.073-2.119-.786-.482-1.611-.514-2.447-.048-.843.47-1.22 1.205-1.23 2.134-.04 4.18-.07 8.363-.106 12.545-.003.373.058.73.215 1.07.566 1.235 1.7 1.595 3.382 1.064l2.105-2.105h-.003Zm-8.743.622c.137-16.876.284-33.75.418-50.627.04-5.285-3.595-8.893-8.895-8.85-7.231.058-14.466.118-21.697.18-5.44.048-9.08 3.697-9.126 9.14l-.152 18.376-.266 32.03c-.04 4.963 3.478 8.757 8.303 8.76 7.65.001 15.302-.098 22.953-.188 2.288-.027 4.25-.952 5.92-2.528 1.674-1.776 2.524-3.865 2.544-6.292l-.002-.001ZM48.21 6.995c.136-1.253 1.225-1.913 2.449-1.482 1.44.509 2.4 1.826 2.425 3.42.022 1.378-.009 2.756-.02 4.134-.13 15.597-.268 31.196-.382 46.793-.012 1.74-.658 3.054-2.24 3.86-.54.275-1.123.356-1.722.361-7.454.06-14.908.129-22.362.182-2.314.018-3.897-1.543-3.88-3.854.134-17.025.28-34.05.423-51.074.01-1.292.57-2.287 1.573-3.124.925-.774 1.877-.578 2.844-.32.499.134.439.645.476 1.057.212 2.388 1.474 3.976 3.684 4.819.623.238 1.288.282 1.957.275 3.026-.028 6.053-.057 9.079-.071 1.575-.008 2.942-.522 4.149-1.717a5.362 5.362 0 0 0 1.553-3.259h-.006Z" fill="#fff"/></svg>