<svg width="7" height="21" fill="none" xmlns="http://www.w3.org/2000/svg"><path d="M1.175 21c-.701-.286-.914-.922-1.077-1.587-.08-.326-.093-.66-.093-.996.001-1.441.004-2.882-.003-4.323-.001-.175.05-.214.213-.213 2.19.005 4.38.004 6.57.001.136 0 .216.006.215.19-.01 1.55-.006 3.101-.013 4.651-.003.468-.108.92-.29 1.35-.175.418-.433.761-.87.927h-.281c-.502-.179-.75-.595-.951-1.097-.214.497-.454.933-.974 1.097h-.28c-.488-.193-.735-.609-.928-1.09-.359.743-.455.85-.957 1.09h-.28ZM6.806 8.56c.147 0 .195-.037.193-.195-.01-.69.006-1.38-.015-2.07-.023-.82-.27-1.579-.678-2.284-.045-.08-.098-.113-.19-.113-1.744.003-3.487.003-5.23 0-.093 0-.146.033-.192.112-.406.706-.656 1.463-.678 2.284-.02.682-.003 1.366-.015 2.05-.003.17.045.217.212.216 1.089-.008 2.177-.004 3.266-.004 1.109 0 2.217-.003 3.326.003h.001Zm.011 4.894c.136 0 .184-.032.183-.18a498.29 498.29 0 0 1 0-4.1c0-.157-.046-.193-.192-.192-2.205.005-4.41.004-6.615 0-.145 0-.194.033-.193.191.006 1.36.006 2.72 0 4.08-.001.167.05.202.203.202 1.096-.007 2.191-.004 3.287-.004 1.11 0 2.218-.002 3.327.003ZM5.061 1.16c0-.232.003-.465-.001-.697-.005-.279-.166-.458-.432-.46-.755-.005-1.51-.006-2.265 0-.248.003-.414.177-.42.429-.008.286-.006.574-.001.86.003.208.104.372.298.41.158.03.116.108.093.191-.103.361-.324.636-.603.871a3.685 3.685 0 0 0-.649.69h4.84a3.73 3.73 0 0 0-.655-.697c-.321-.267-.554-.588-.628-1.013.342-.096.423-.209.424-.585v.001Z" fill="#FF638E"/></svg>