<svg width="18" height="23" fill="none" xmlns="http://www.w3.org/2000/svg"><path d="M3.664 13.819H2.76c-.583-.004-.824-.402-.527-.882 1.124-1.816 2.251-3.63 3.375-5.445.05-.08.123-.15.131-.276-.169 0-.332.002-.496 0-.52-.008-.764-.406-.5-.838.564-.92 1.137-1.836 1.706-2.754l2-3.226c.33-.53.77-.531 1.1 0 1.218 1.966 2.436 3.932 3.657 5.896.133.215.236.425.08.669-.146.228-.376.266-.63.255-.13-.006-.26-.001-.398-.001.01.121.082.193.132.272 1.114 1.802 2.23 3.604 3.35 5.404.134.217.227.432.082.67-.14.228-.374.266-.63.26-.273-.008-.548-.002-.826-.002-.007.116.071.185.12.264 1.114 1.802 2.232 3.603 3.346 5.405.06.095.124.194.15.299.091.367-.175.637-.62.637-2.01.002-4.02.007-6.03-.006-.26-.002-.314.067-.307.302.017.63.007 1.26.005 1.89 0 .298-.086.385-.4.386-1.085.003-2.169.003-3.253 0-.32-.001-.401-.082-.402-.38-.002-.646-.012-1.293.005-1.938.007-.22-.069-.258-.28-.257-1.96.007-3.919.004-5.879.004h-.2c-.536-.007-.78-.402-.51-.845.513-.839 1.034-1.672 1.552-2.508l1.87-3.022c.04-.066.076-.135.131-.231v-.002Zm9.17 4.307c.453-.004.846-.383.846-.816 0-.431-.4-.81-.852-.807-.457.003-.844.377-.844.814 0 .432.4.812.85.808Zm-7.66-1.623c-.457 0-.847.372-.848.809 0 .436.39.813.843.814.452 0 .849-.378.85-.81.002-.435-.39-.812-.846-.813ZM9.837 4.671c-.002-.45-.374-.807-.84-.805-.466.002-.832.358-.832.811 0 .45.373.81.838.81.458 0 .835-.37.834-.816ZM6.866 9.588c-.003.452.353.805.823.814.467.01.845-.34.852-.786.007-.465-.355-.822-.835-.824-.47 0-.836.346-.84.796Zm4.282.727c-.473 0-.839.35-.838.8 0 .452.367.8.84.799.471 0 .838-.35.837-.8 0-.452-.366-.8-.84-.8l.001.001Zm-1.31 5.494c-.002-.451-.37-.797-.843-.795-.472.002-.831.352-.83.806.002.454.367.8.841.796.471-.003.833-.355.831-.807Z" fill="#FF638E"/></svg>