<svg width="18" height="15" fill="none" xmlns="http://www.w3.org/2000/svg"><path d="M0 3.483V.015C.087.011.175.003.262.003h17.452c.053 0 .106.004.158-.002.102-.01.127.034.127.13a496.123 496.123 0 0 0 0 3.227c.001.116-.047.128-.144.127-.275-.005-.55.004-.826-.005-.117-.003-.16.022-.16.148.004 3.36.004 6.72.001 10.079 0 .11.029.149.146.145.28-.007.562.002.843-.004.105-.003.144.022.14.132-.008.263 0 .527-.002.79-.003.254.043.23-.231.23H.209c-.07 0-.14-.009-.209-.013v-1.133c.31-.002.621-.014.931 0 .17.007.197-.053.197-.202-.004-2.386-.003-4.773-.003-7.159 0-.95-.002-1.9.003-2.85 0-.123-.024-.168-.162-.163-.321.01-.644.003-.966.003ZM11.844 13.85c.483 0 .928-.008 1.372.004.16.004.193-.047.192-.193-.005-2.049-.005-4.097.001-6.145 0-.145-.043-.199-.184-.22-.42-.062-.809-.215-1.188-.396-.621-.296-1.183-.695-1.807-.984-.717-.333-1.447-.38-2.192-.111-.558.202-1.044.535-1.555.821-.55.308-1.113.583-1.749.679-.133.02-.144.089-.144.198.003 2.054.002 4.107.002 6.161 0 .023.002.046 0 .07-.009.089.032.12.122.117.187-.005.375-.001.562-.001h.868c-.023-.051-.031-.079-.045-.102-.245-.404-.34-.844-.337-1.311.004-.644.12-1.272.273-1.895.07-.284.153-.564.236-.866.395.29.77.553 1.13.835.137.108.19.07.275-.05.404-.582.82-1.156 1.224-1.738.085-.123.121-.107.198.003.415.595.84 1.184 1.255 1.779.065.094.107.105.202.034.341-.26.694-.508 1.034-.769.117-.09.15-.066.185.064.171.617.333 1.236.412 1.871.06.479.088.957-.03 1.432-.06.245-.172.469-.313.713h.001Z" fill="#FF638E"/></svg>