<svg width="19" height="19" fill="none" xmlns="http://www.w3.org/2000/svg"><path d="M9.48 8.829H.304c-.317 0-.322 0-.29-.317.162-1.58.673-3.042 1.582-4.357 1.272-1.84 2.979-3.14 5.157-3.74C10.44-.6 13.677.249 16.382 2.92c1.389 1.37 2.19 3.062 2.519 4.968.046.268.063.54.096.81.013.099-.02.143-.125.132-.05-.005-.1 0-.15 0H9.482Zm-5.08 1.34c-1.395 0-2.79.004-4.185-.005-.183 0-.229.049-.211.22.046.452.112.899.216 1.34.913 3.888 4.238 6.83 8.379 7.228 1.65.159 3.255-.072 4.756-.77 3.35-1.558 5.22-4.175 5.64-7.801.021-.183-.038-.216-.213-.216-3.094.005-6.189.004-9.284.004H4.4Z" fill="#FF638E"/></svg>