<svg width="47" height="142" viewBox="0 0 47 142" fill="none" xmlns="http://www.w3.org/2000/svg">
<path d="M41.0303 0.469666C40.7374 0.176773 40.2626 0.176773 39.9697 0.469666L35.1967 5.24265C34.9038 5.53554 34.9038 6.01041 35.1967 6.3033C35.4896 6.59619 35.9645 6.59619 36.2574 6.3033L40.5 2.06065L44.7426 6.3033C45.0355 6.59619 45.5104 6.59619 45.8033 6.3033C46.0962 6.01041 46.0962 5.53554 45.8033 5.24265L41.0303 0.469666ZM41.25 142L41.25 1L39.75 1L39.75 142L41.25 142Z" fill="white"/>
<path d="M8.32129 132.536L18 132.536L18 133.535L13.4883 133.535L13.4883 139.465L18 139.465L18 140.464L8.32129 140.464L8.32129 139.465L12.5 139.465L12.5 133.535L8.32129 133.535L8.32129 132.536ZM17.1191 126.488C17.1191 125.55 16.8398 124.802 16.2812 124.243C15.7227 123.685 14.9743 123.405 14.0361 123.405L13.1553 123.405L13.1553 124.619C13.1553 125.471 13.2161 126.18 13.3379 126.746C13.4525 127.312 13.61 127.763 13.8105 128.1C14.0111 128.436 14.2402 128.673 14.498 128.809C14.763 128.945 15.0495 129.016 15.3574 129.023C15.7943 129.023 16.1989 128.809 16.5713 128.379C16.9365 127.956 17.1191 127.326 17.1191 126.488ZM8.21387 125.94C8.21387 125.41 8.29622 124.931 8.46094 124.501C8.63281 124.071 8.86914 123.699 9.16992 123.384C9.4707 123.076 9.82878 122.84 10.2441 122.675C10.6595 122.503 11.1178 122.417 11.6191 122.417L18 122.417L18 123.083L16.5713 123.405L16.5713 123.523C16.8649 123.731 17.1227 123.971 17.3447 124.243C17.5524 124.494 17.7314 124.809 17.8818 125.188C18.0394 125.568 18.1146 126.037 18.1074 126.596C18.1074 127.699 17.846 128.544 17.3232 129.131C16.7933 129.718 16.138 130.012 15.3574 130.012C14.9206 130.012 14.5088 129.915 14.1221 129.722C13.7354 129.528 13.3952 129.22 13.1016 128.798C12.8151 128.375 12.5895 127.824 12.4248 127.144C12.2529 126.463 12.167 125.622 12.167 124.619L12.167 123.405L11.6191 123.405C10.903 123.405 10.3193 123.634 9.86816 124.093C9.42415 124.544 9.20215 125.16 9.20215 125.94C9.20215 126.721 9.37044 127.315 9.70703 127.724C10.0436 128.132 10.4626 128.418 10.9639 128.583L10.9639 129.571C10.613 129.514 10.2656 129.389 9.92187 129.195C9.58529 129.002 9.29167 128.751 9.04102 128.443C8.79036 128.135 8.58984 127.774 8.43945 127.358C8.28906 126.943 8.21387 126.47 8.21387 125.94ZM12.9404 115.381C13.0693 115.059 13.2376 114.765 13.4453 114.5C13.6243 114.278 13.8607 114.077 14.1543 113.898C14.4479 113.712 14.8131 113.619 15.25 113.619C15.6296 113.619 15.9948 113.698 16.3457 113.855C16.6895 114.006 16.9938 114.224 17.2588 114.511C17.5166 114.797 17.7243 115.134 17.8818 115.521C18.0322 115.907 18.1074 116.337 18.1074 116.81C18.1074 117.34 18.0322 117.812 17.8818 118.228C17.7243 118.643 17.5094 119.001 17.2373 119.302C16.9652 119.603 16.6501 119.842 16.292 120.021C15.9339 120.193 15.5508 120.297 15.1426 120.333L15.1426 119.334C15.7585 119.219 16.2419 118.965 16.5928 118.571C16.9437 118.17 17.1191 117.583 17.1191 116.81C17.1191 116.151 16.9329 115.621 16.5605 115.22C16.1881 114.812 15.7513 114.607 15.25 114.607C14.8131 114.607 14.4121 114.797 14.0469 115.177C13.6745 115.549 13.4883 116.093 13.4883 116.81L13.4883 117.798L12.5 117.798L12.5 116.917C12.5 116.566 12.4499 116.258 12.3496 115.993C12.2422 115.728 12.1133 115.51 11.9629 115.338C11.8053 115.159 11.6299 115.03 11.4365 114.951C11.236 114.872 11.0391 114.833 10.8457 114.833C10.4089 114.833 10.0257 115.001 9.69629 115.338C9.36686 115.674 9.20215 116.201 9.20215 116.917C9.20215 117.576 9.37044 118.099 9.70703 118.485C10.0436 118.865 10.4626 119.112 10.9639 119.227L10.9639 120.215C10.613 120.186 10.2692 120.09 9.93262 119.925C9.58887 119.753 9.29525 119.52 9.05176 119.227C8.80111 118.933 8.60058 118.593 8.45019 118.206C8.29264 117.819 8.21387 117.39 8.21387 116.917C8.21387 116.444 8.28548 116.018 8.42871 115.639C8.56478 115.259 8.75098 114.937 8.9873 114.672C9.21647 114.407 9.48502 114.203 9.79297 114.06C10.1009 113.909 10.416 113.834 10.7383 113.834C11.1608 113.834 11.5081 113.916 11.7803 114.081C12.0524 114.239 12.278 114.414 12.457 114.607C12.6647 114.844 12.8258 115.102 12.9404 115.381ZM17.1191 108.227C17.1191 107.288 16.8398 106.54 16.2812 105.981C15.7227 105.423 14.9743 105.144 14.0361 105.144L13.1553 105.144L13.1553 106.357C13.1553 107.21 13.2161 107.919 13.3379 108.484C13.4525 109.05 13.61 109.501 13.8105 109.838C14.0111 110.174 14.2402 110.411 14.498 110.547C14.763 110.683 15.0495 110.755 15.3574 110.762C15.7943 110.762 16.1989 110.547 16.5713 110.117C16.9365 109.695 17.1191 109.064 17.1191 108.227ZM8.21387 107.679C8.21387 107.149 8.29622 106.669 8.46094 106.239C8.63281 105.81 8.86914 105.437 9.16992 105.122C9.4707 104.814 9.82877 104.578 10.2441 104.413C10.6595 104.241 11.1178 104.155 11.6191 104.155L18 104.155L18 104.821L16.5713 105.144L16.5713 105.262C16.8649 105.469 17.1227 105.709 17.3447 105.981C17.5524 106.232 17.7314 106.547 17.8818 106.927C18.0394 107.306 18.1146 107.775 18.1074 108.334C18.1074 109.437 17.846 110.282 17.3232 110.869C16.7933 111.456 16.138 111.75 15.3574 111.75C14.9206 111.75 14.5088 111.653 14.1221 111.46C13.7354 111.267 13.3952 110.959 13.1016 110.536C12.8151 110.114 12.5895 109.562 12.4248 108.882C12.2529 108.201 12.167 107.36 12.167 106.357L12.167 105.144L11.6191 105.144C10.903 105.144 10.3193 105.373 9.86816 105.831C9.42415 106.282 9.20215 106.898 9.20215 107.679C9.20215 108.459 9.37044 109.054 9.70703 109.462C10.0436 109.87 10.4626 110.157 10.9639 110.321L10.9639 111.31C10.613 111.252 10.2656 111.127 9.92187 110.934C9.58529 110.74 9.29167 110.49 9.04101 110.182C8.79036 109.874 8.58984 109.512 8.43945 109.097C8.28906 108.681 8.21387 108.209 8.21387 107.679ZM17.0117 92.6074L20.5352 92.6074L20.5352 93.5957L18 93.5957L18 101.738L20.5352 101.738L20.5352 102.727L17.0117 102.727L17.0117 102.179C16.8971 101.942 16.736 101.728 16.5283 101.534C16.3493 101.369 16.1094 101.212 15.8086 101.062C15.5078 100.911 15.139 100.807 14.7021 100.75L8.32129 100.084L8.32129 94.0361L17.0117 94.0361L17.0117 92.6074ZM14.7021 99.7617C15.139 99.8047 15.5078 99.8942 15.8086 100.03C16.1094 100.159 16.3493 100.295 16.5283 100.438C16.736 100.603 16.8971 100.779 17.0117 100.965L17.0117 95.0244L9.30957 95.0244L9.30957 99.2031L14.7021 99.7617Z" fill="white"/>
</svg>
