<svg width="47" height="142" viewBox="0 0 47 142" fill="none" xmlns="http://www.w3.org/2000/svg">
<path d="M39.9697 141.53C40.2626 141.823 40.7374 141.823 41.0303 141.53L45.8033 136.757C46.0962 136.464 46.0962 135.99 45.8033 135.697C45.5104 135.404 45.0355 135.404 44.7426 135.697L40.5 139.939L36.2574 135.697C35.9645 135.404 35.4896 135.404 35.1967 135.697C34.9038 135.99 34.9038 136.464 35.1967 136.757L39.9697 141.53ZM39.75 -3.27835e-08L39.75 141L41.25 141L41.25 3.27835e-08L39.75 -3.27835e-08Z" fill="white"/>
<path d="M17.0117 43.8809L20.5352 43.8809L20.5352 44.8691L18 44.8691L18 53.0117L20.5352 53.0117L20.5352 54L17.0117 54L17.0117 53.4521C16.8971 53.2158 16.736 53.001 16.5283 52.8076C16.3493 52.6429 16.1094 52.4854 15.8086 52.335C15.5078 52.1846 15.139 52.0807 14.7021 52.0234L8.32129 51.3574L8.32129 45.3096L17.0117 45.3096L17.0117 43.8809ZM14.7021 51.0352C15.139 51.0781 15.5078 51.1676 15.8086 51.3037C16.1094 51.4326 16.3493 51.5687 16.5283 51.7119C16.736 51.8766 16.8971 52.0521 17.0117 52.2383L17.0117 46.2979L9.30957 46.2979L9.30957 50.4766L14.7021 51.0352ZM17.1191 38.8105C17.1191 37.8724 16.8398 37.124 16.2812 36.5654C15.7227 36.0068 14.9743 35.7275 14.0361 35.7275L13.1553 35.7275L13.1553 36.9414C13.1553 37.7936 13.2161 38.5026 13.3379 39.0684C13.4525 39.6341 13.61 40.0853 13.8105 40.4219C14.0111 40.7585 14.2402 40.9948 14.498 41.1309C14.763 41.2669 15.0495 41.3385 15.3574 41.3457C15.7943 41.3457 16.1989 41.1309 16.5713 40.7012C16.9365 40.2786 17.1191 39.6484 17.1191 38.8105ZM8.21387 38.2627C8.21387 37.7327 8.29622 37.2529 8.46094 36.8232C8.63281 36.3936 8.86914 36.0212 9.16992 35.7061C9.4707 35.3981 9.82878 35.1618 10.2441 34.9971C10.6595 34.8252 11.1178 34.7393 11.6191 34.7393L18 34.7393L18 35.4053L16.5713 35.7275L16.5713 35.8457C16.8649 36.0534 17.1227 36.2933 17.3447 36.5654C17.5524 36.8161 17.7314 37.1312 17.8818 37.5107C18.0394 37.8903 18.1146 38.3594 18.1074 38.918C18.1074 40.0208 17.846 40.8659 17.3232 41.4531C16.7933 42.0404 16.138 42.334 15.3574 42.334C14.9206 42.334 14.5088 42.2373 14.1221 42.0439C13.7354 41.8506 13.3952 41.5426 13.1016 41.1201C12.8151 40.6976 12.5895 40.1462 12.4248 39.4658C12.2529 38.7855 12.167 37.944 12.167 36.9414L12.167 35.7275L11.6191 35.7275C10.903 35.7275 10.3193 35.9567 9.86816 36.415C9.42415 36.8662 9.20215 37.4821 9.20215 38.2627C9.20215 39.0433 9.37044 39.6377 9.70703 40.0459C10.0436 40.4541 10.4626 40.7406 10.9639 40.9053L10.9639 41.8936C10.613 41.8363 10.2656 41.7109 9.92187 41.5176C9.58529 41.3242 9.29167 41.0736 9.04102 40.7656C8.79036 40.4577 8.58984 40.096 8.43945 39.6807C8.28906 39.2653 8.21387 38.7926 8.21387 38.2627ZM8.32129 24.2871L18 24.2871L18 25.2754L9.30957 25.2754L9.30957 29.6797L14.7021 30.1201C15.9196 30.2204 16.7933 30.5033 17.3232 30.9687C17.846 31.4271 18.1074 31.9893 18.1074 32.6553C18.1074 32.7412 18.1038 32.82 18.0967 32.8916C18.0895 32.9632 18.0788 33.0384 18.0645 33.1172C18.0501 33.1888 18.0286 33.2533 18 33.3105L17.1191 33.3105L17.1191 32.8701C17.1191 32.4333 16.9258 32.0501 16.5391 31.7207C16.1523 31.3841 15.54 31.18 14.7021 31.1084L8.32129 30.5605L8.32129 24.2871ZM15.583 13.2764C15.8909 13.4053 16.1953 13.5915 16.4961 13.835C16.7969 14.0713 17.0654 14.3506 17.3018 14.6729C17.5452 15.0023 17.7422 15.3818 17.8926 15.8115C18.0358 16.234 18.1074 16.7103 18.1074 17.2402C18.1074 17.8991 17.9821 18.5114 17.7314 19.0771C17.4808 19.6429 17.137 20.1299 16.7002 20.5381C16.2633 20.9463 15.7441 21.2686 15.1426 21.5049C14.541 21.7412 13.8786 21.8594 13.1553 21.8594C12.4391 21.8594 11.7803 21.7412 11.1787 21.5049C10.5771 21.2686 10.0579 20.9499 9.62109 20.5488C9.18424 20.1478 8.83691 19.6715 8.5791 19.1201C8.32845 18.5687 8.2067 17.9779 8.21387 17.3477C8.21387 16.7461 8.32845 16.1803 8.55762 15.6504C8.79394 15.1133 9.11979 14.6442 9.53515 14.2432C9.94336 13.8493 10.4303 13.5342 10.9961 13.2979C11.5618 13.0615 12.1742 12.9469 12.833 12.9541C12.9476 12.9541 13.0478 12.9613 13.1338 12.9756C13.2197 12.9899 13.3021 13.0042 13.3809 13.0186C13.4525 13.0329 13.5241 13.0472 13.5957 13.0615L13.5957 20.8711C14.1256 20.8138 14.609 20.6849 15.0459 20.4844C15.4756 20.2839 15.8444 20.026 16.1523 19.7109C16.4603 19.3958 16.7002 19.0306 16.8721 18.6152C17.0439 18.1999 17.1263 17.7415 17.1191 17.2402C17.1191 16.8893 17.0726 16.5671 16.9795 16.2734C16.8864 15.9798 16.7611 15.7184 16.6035 15.4893C16.446 15.2601 16.2777 15.0667 16.0986 14.9092C15.9124 14.7445 15.7406 14.6048 15.583 14.4902L15.583 13.2764ZM9.20215 17.3477C9.20215 17.7845 9.2845 18.1999 9.44922 18.5937C9.62109 18.9805 9.85742 19.3278 10.1582 19.6357C10.459 19.9437 10.8171 20.2051 11.2324 20.4199C11.6478 20.6348 12.1061 20.7852 12.6074 20.8711L12.6074 13.9424C12.1061 13.9997 11.6478 14.1286 11.2324 14.3291C10.8171 14.5296 10.459 14.7767 10.1582 15.0703C9.85742 15.3711 9.62109 15.7184 9.44922 16.1123C9.2845 16.499 9.20215 16.9108 9.20215 17.3477ZM15.583 2.59863C15.8909 2.72754 16.1953 2.91374 16.4961 3.15723C16.7969 3.39355 17.0654 3.67285 17.3018 3.99512C17.5452 4.32454 17.7422 4.7041 17.8926 5.13379C18.0358 5.55631 18.1074 6.03255 18.1074 6.5625C18.1074 7.22135 17.9821 7.83366 17.7314 8.39941C17.4808 8.96517 17.137 9.45215 16.7002 9.86035C16.2633 10.2686 15.7441 10.5908 15.1426 10.8271C14.541 11.0635 13.8786 11.1816 13.1553 11.1816C12.4391 11.1816 11.7803 11.0635 11.1787 10.8271C10.5771 10.5908 10.0579 10.2721 9.62109 9.87109C9.18424 9.47005 8.83691 8.99381 8.5791 8.44238C8.32845 7.89095 8.2067 7.30013 8.21387 6.66992C8.21387 6.06836 8.32845 5.5026 8.55762 4.97266C8.79394 4.43555 9.11979 3.96647 9.53515 3.56543C9.94336 3.17155 10.4303 2.85644 10.9961 2.62012C11.5618 2.38379 12.1742 2.26921 12.833 2.27637C12.9476 2.27637 13.0478 2.28353 13.1338 2.29785C13.2197 2.31217 13.3021 2.3265 13.3809 2.34082C13.4525 2.35514 13.5241 2.36947 13.5957 2.38379L13.5957 10.1934C14.1256 10.1361 14.609 10.0072 15.0459 9.80664C15.4756 9.60612 15.8444 9.34831 16.1523 9.0332C16.4603 8.7181 16.7002 8.35286 16.8721 7.9375C17.0439 7.52213 17.1263 7.0638 17.1191 6.5625C17.1191 6.21159 17.0726 5.88932 16.9795 5.5957C16.8864 5.30208 16.7611 5.04069 16.6035 4.81152C16.446 4.58236 16.2777 4.389 16.0986 4.23144C15.9124 4.06673 15.7406 3.92708 15.583 3.8125L15.583 2.59863ZM9.20215 6.66992C9.20215 7.10677 9.2845 7.52214 9.44922 7.91602C9.62109 8.30273 9.85742 8.65006 10.1582 8.95801C10.459 9.26595 10.8171 9.52734 11.2324 9.74219C11.6478 9.95703 12.1061 10.1074 12.6074 10.1934L12.6074 3.26465C12.1061 3.32194 11.6478 3.45085 11.2324 3.65137C10.8171 3.85189 10.459 4.09896 10.1582 4.39258C9.85742 4.69336 9.62109 5.04069 9.44922 5.43457C9.2845 5.82129 9.20215 6.23307 9.20215 6.66992Z" fill="white"/>
</svg>
