<svg width="34" height="31" viewBox="0 0 34 31" fill="none" xmlns="http://www.w3.org/2000/svg">
<path d="M19.5441 20.4278C20.4195 19.8797 21.2294 19.3691 22.0432 18.8651C23.3519 18.0545 24.9266 18.7329 25.1574 20.2285C25.2758 20.9902 24.9677 21.6312 24.3212 22.0575C22.8237 23.0463 21.3204 24.0265 19.7896 24.9645C18.3587 25.8411 16.6216 24.9942 16.334 23.3203C16.1384 22.1802 15.934 21.0419 15.7462 19.9008C15.7041 19.644 15.5897 19.461 15.3295 19.4275C15.0801 19.3949 14.9236 19.5511 14.8356 19.7734C14.4551 20.7382 14.3514 21.7404 14.4414 22.7627C14.5803 24.3369 15.1378 25.7741 15.9516 27.1289C16.467 27.9883 16.3624 28.9694 15.7129 29.6477C15.0723 30.3175 14.0893 30.5005 13.2657 30.1048C12.9752 29.9649 12.7336 29.7704 12.5478 29.5088C10.9398 27.2515 10.2365 24.7575 10.4351 22.0068C10.5544 20.3521 11.0043 18.7693 11.4279 17.1788C11.466 17.037 11.4807 16.899 11.4807 16.7553C11.4807 15.1658 11.4787 13.5763 11.4807 11.9867C11.4807 11.4857 11.3369 11.0411 10.9525 10.699C9.2066 9.14688 8.19525 7.17316 7.52818 5.00302C7.3355 4.37545 7.17411 3.73831 7.08021 3.0887C6.90807 1.89968 7.65729 0.938683 8.84373 0.811254C9.97734 0.688614 10.9202 1.51355 11.0366 2.68438C11.1882 4.21257 11.6812 5.61526 12.7327 6.7947C12.9723 7.06393 13.2422 7.23544 13.6159 7.31305C14.95 7.5909 16.2753 7.9042 17.6036 8.20984C18.0731 8.31811 18.525 8.17152 18.9817 8.12553C19.4424 8.07954 19.8982 7.98085 20.3589 7.93678C20.6288 7.91091 20.6435 7.81702 20.5604 7.59761C20.1838 6.60404 19.8102 5.60855 19.4551 4.60732C19.0776 3.54285 19.6811 2.52724 20.8049 2.29921C21.5463 2.14879 22.4002 2.55599 22.6907 3.28607C23.4194 5.118 24.1402 6.95375 24.7995 8.81058C25.1927 9.91625 24.3632 11.0248 23.1631 11.1551C21.9874 11.2825 20.8137 11.433 19.64 11.5786C19.2233 11.6303 19.0267 11.8363 19.0218 12.2387C19.0013 14.0668 18.9455 15.8968 18.9915 17.724C19.014 18.6236 19.3573 19.4917 19.5412 20.4287L19.5441 20.4278ZM15.7765 7.13771C17.4735 7.14442 18.8624 5.80305 18.8732 4.14838C18.8839 2.51191 17.4784 1.13318 15.7961 1.12935C14.1264 1.12552 12.7336 2.47934 12.7307 4.11006C12.7278 5.78485 14.0824 7.131 15.7765 7.13771ZM5.4106 15.5902C5.80477 15.8892 6.16569 15.8805 6.40435 15.5672C6.62833 15.2731 6.54813 14.9224 6.18232 14.6388C5.69425 14.2613 5.19541 13.8963 4.71223 13.513C4.47455 13.3243 4.22612 13.2275 3.93953 13.3588C3.63437 13.4996 3.56688 13.7698 3.56883 14.0774C3.5747 14.9368 3.56394 15.7972 3.5747 16.6566C3.57862 16.9335 3.58253 17.1271 3.19324 16.99C3.00838 16.9249 2.78146 16.9594 2.57509 16.967C1.50407 17.0035 0.660944 18.0622 0.884929 19.0845C1.11283 20.1269 1.95497 20.6673 3.16684 20.5495C4.08136 20.4603 4.80222 19.6527 4.80613 18.6955C4.812 17.5381 4.80711 16.3797 4.80711 15.1294C5.05261 15.3172 5.2316 15.4542 5.41157 15.5912L5.4106 15.5902ZM30.3834 10.1845C29.6283 10.0284 28.7158 10.4106 28.2825 11.0641C27.9069 11.6313 27.9372 12.4169 28.3549 12.9832C28.8468 13.6481 29.8152 13.9269 30.6935 13.6567C31.5034 13.4076 32.0032 12.7379 32.0071 11.8718C32.013 10.8332 32.0061 9.79361 32.01 8.75501C32.01 8.64483 31.965 8.52123 32.0736 8.39859C32.2594 8.53944 32.4384 8.67836 32.6223 8.8125C32.9842 9.07694 33.3265 9.06544 33.5632 8.78567C33.8087 8.49536 33.7461 8.15044 33.3784 7.85917C32.8844 7.46922 32.3797 7.09268 31.8819 6.70751C31.6481 6.52643 31.4085 6.41529 31.1102 6.55996C30.8118 6.7056 30.7659 6.95854 30.7678 7.25077C30.7747 8.24146 30.7708 9.23216 30.7708 10.2708C30.6201 10.2363 30.5018 10.2075 30.3834 10.1836V10.1845ZM30.226 0.188477C29.9462 0.961678 29.4269 1.45703 28.6473 1.74829C29.4249 2.03477 29.9413 2.53682 30.2338 3.30332C30.5233 2.53682 31.0525 2.04723 31.8144 1.73967C31.0104 1.46565 30.537 0.924312 30.225 0.188477H30.226ZM2.2259 1.51834C2.02931 2.121 1.67328 2.4391 1.06881 2.65659C1.70262 2.83193 2.00779 3.21134 2.25525 3.77471C2.44304 3.16727 2.80787 2.85779 3.39669 2.64605C2.7932 2.4458 2.45576 2.09705 2.2259 1.5193V1.51834ZM6.76429 28.9541C6.95502 28.3562 7.3218 28.0371 7.89986 27.8129C7.3042 27.6117 6.9648 27.2764 6.76037 26.7063C6.53443 27.2572 6.22829 27.6242 5.69033 27.8206C6.21362 28.0122 6.53835 28.3744 6.76429 28.9541ZM29.3339 22.8125C29.1628 22.6429 29.0679 22.3986 28.8899 22.1054C28.7353 22.7014 28.3304 22.9831 27.858 23.2418C28.4214 23.3845 28.6864 23.7889 28.9349 24.3302C29.1334 23.7534 29.466 23.4152 30.047 23.2312C29.7418 23.0588 29.4973 22.9754 29.333 22.8135L29.3339 22.8125Z" fill="#FF4D46"/>
</svg>
