<svg width="25" height="31" viewBox="0 0 25 31" fill="none" xmlns="http://www.w3.org/2000/svg">
<path d="M13.1156 21.9626C13.1562 20.9635 13.1449 19.8326 13.2789 18.7069C13.348 18.1244 13.1596 17.7369 12.7431 17.5495C12.139 17.2784 11.4754 17.6821 11.4149 18.3716C11.1867 20.9917 11.185 23.611 11.4572 26.2303C11.586 27.4715 11.7839 28.699 12.139 29.8975C12.184 30.0497 12.1624 30.101 12.0077 30.1318C11.1867 30.2927 10.3813 30.2379 9.58627 29.9839C9.50936 29.959 9.43677 29.9334 9.43244 29.8453C9.40652 29.3389 9.13258 28.9163 8.94937 28.4663C8.52679 27.4279 8.36087 26.3338 8.19408 25.2406C8.03334 24.1858 7.96162 23.1217 7.98668 22.0524C8.04112 19.7214 8.59419 17.5247 9.77034 15.494C9.91725 15.2399 10.0408 14.9824 9.97256 14.6779C9.88614 14.2972 9.60701 14.0261 9.23801 13.9602C8.80764 13.8841 8.4663 14.0329 8.22865 14.4264C7.73607 15.2416 7.3325 16.1004 7.01189 16.9961C6.23067 19.1782 5.98438 21.428 6.15462 23.7299C6.27129 25.3158 6.49511 26.883 6.94621 28.4125C7.01793 28.6571 7.10608 28.8992 7.21151 29.131C7.31003 29.3491 7.25213 29.4064 7.02312 29.3987C5.86599 29.3611 4.82984 28.9856 3.91727 28.291C2.31508 27.0703 1.37399 25.4228 1.01709 23.4895C0.366364 19.9584 1.23745 16.819 3.70036 14.1441C4.79959 12.9499 6.04919 11.9157 7.2625 10.8422C8.01001 10.181 8.7411 9.50432 9.41343 8.76439C10.1946 7.90469 10.5688 6.89359 10.7114 5.76444C10.8894 4.35044 10.8523 2.93216 10.8601 1.51473C10.8601 1.37615 10.8549 1.23672 10.867 1.099C10.9309 0.400124 11.5099 0.0237405 12.1797 0.258125C13.03 0.55581 13.8778 0.864615 14.7203 1.18197C15.1438 1.34194 15.3693 1.65588 15.3676 2.11695C15.3633 3.07758 15.3529 4.03736 15.3624 4.99799C15.3693 5.68061 15.4393 6.35896 15.5707 7.03046C15.7539 7.96628 16.3407 8.65917 16.9767 9.31784C18.1995 10.5821 19.5416 11.7267 20.7601 12.9961C22.0658 14.3571 23.2645 15.7976 23.9178 17.5889C24.9824 20.505 25.1345 23.4442 23.891 26.3458C23.2282 27.8932 22.0382 28.912 20.353 29.2987C20.1137 29.3534 19.8631 29.3611 19.6176 29.3919C19.3688 29.4236 19.3247 29.3072 19.3817 29.0934C19.6021 28.2576 19.7308 27.4065 19.8389 26.5502C20.0126 25.1704 20.0636 23.7846 20.0108 22.3989C19.9374 20.4451 19.6695 18.5178 19.0481 16.6513C18.8494 16.0542 18.6126 15.4726 18.3274 14.9106C18.0587 14.3802 17.5298 14.18 17.0363 14.4136C16.555 14.6411 16.3787 15.1911 16.6449 15.7241C17.8582 18.1543 18.2159 20.7462 18.1624 23.422C18.1209 25.4647 17.7536 27.4646 17.4218 29.4732C17.3293 30.0309 17.0726 30.1832 16.5956 30.2567C15.8127 30.3773 15.0531 30.2892 14.2969 30.0865C14.137 30.0437 14.1189 29.9154 14.0783 29.8008C13.698 28.7307 13.5053 27.6195 13.367 26.4989C13.1873 25.0361 13.1372 23.5657 13.1173 21.9626H13.1156Z" fill="#FF4D46"/>
</svg>
