<svg width="76" height="70" viewBox="0 0 76 70" fill="none" xmlns="http://www.w3.org/2000/svg">
<path d="M11.5957 7.96135C11.7813 8.06829 11.918 7.90125 12.073 7.85942C13.5812 7.45819 15.0611 8.44604 15.0662 10.0034C15.0793 14.3048 15.0338 18.6096 14.9702 22.9132C14.9498 24.2117 13.8836 25.1814 12.6074 25.2015C11.3061 25.222 10.2661 24.2579 10.2451 22.9152C10.2177 21.2202 10.2613 19.5231 10.2714 17.8263C10.2723 17.5853 10.262 17.3445 10.2543 16.9628C8.11921 20.2325 6.61819 23.6217 5.76674 27.2639C3.5648 36.6899 5.03117 45.4564 10.2402 53.5084C11.2881 55.1271 12.5365 56.5949 13.8566 57.9994C14.7712 58.973 14.933 60.1527 14.2761 61.1381C13.6418 62.0898 12.5469 62.3925 11.2608 61.9726C11.1928 61.9496 11.1176 61.9447 11.0453 61.9314C10.3207 61.2068 9.59609 60.4822 8.87148 59.7576C8.86795 59.5375 8.70753 59.4109 8.58211 59.2658C7.42983 57.9419 6.42063 56.5109 5.51238 55.0093C1.19191 47.8768 -0.565045 40.102 0.218672 31.7437C0.840451 25.0766 3.06481 18.9435 6.95651 13.4203C7.70606 12.3561 8.50406 11.3235 9.27991 10.2771C10.0518 9.50518 10.8237 8.73327 11.5957 7.96135ZM66.1748 59.3825C66.2328 59.1285 66.4197 58.9554 66.5816 58.7714C67.5995 57.6183 68.4997 56.3758 69.3266 55.0851C74.0135 47.773 76.0655 39.8027 75.3997 31.2322C74.7014 22.2579 71.2545 14.5058 64.9785 8.09484C64.0457 7.14231 62.5596 7.11569 61.671 7.99595C60.7235 8.93525 60.6951 10.4873 61.607 11.4526C62.963 12.8901 64.2543 14.3868 65.3227 16.0513C71.0184 24.9444 72.2573 34.5126 69.0967 44.715C68.2437 47.4699 66.9856 50.0502 65.313 52.5704C65.303 52.296 65.2904 52.1513 65.2917 52.0064C65.3035 50.2859 65.3167 48.564 65.3312 46.8408C65.3381 45.945 65.0316 45.197 64.2588 44.7222C63.4734 44.2405 62.6476 44.2078 61.8117 44.6738C60.9687 45.1441 60.5928 45.8789 60.5828 46.8082C60.5426 50.9889 60.5122 55.171 60.4763 59.3531C60.4728 59.7265 60.5336 60.0825 60.6906 60.4224C61.2573 61.6583 62.3906 62.0183 64.0727 61.4873L66.1776 59.3825L66.1748 59.3825ZM57.4321 60.004C57.569 43.1279 57.7156 26.2531 57.8498 9.37701C57.8904 4.09157 54.2547 0.483956 48.9553 0.527498C41.7237 0.584771 34.4892 0.644854 27.2576 0.707698C21.8188 0.75532 18.1785 4.4039 18.1323 9.8468C18.0825 15.9723 18.0299 22.0978 17.9801 28.2233C17.8923 38.9001 17.8017 49.5769 17.7138 60.2537C17.6734 65.216 21.1918 69.01 26.0172 69.0126C33.6675 69.0141 41.3188 68.9154 48.97 68.8249C51.2576 68.7982 53.2206 67.8731 54.89 66.2975C56.5642 64.5212 57.4138 62.4322 57.4335 60.0054L57.4321 60.004ZM48.21 6.99516C48.3456 5.74159 49.4354 5.08235 50.6587 5.51259C52.0985 6.02163 53.0586 7.33887 53.0842 8.93362C53.1063 10.3111 53.0754 11.6891 53.064 13.0668C52.9334 28.6641 52.7958 44.2629 52.6819 59.86C52.6699 61.6 52.0239 62.914 50.4424 63.7199C49.9021 63.9951 49.3191 64.0757 48.7201 64.0813C41.2656 64.1406 33.8123 64.2097 26.3579 64.2635C24.0439 64.2807 22.4606 62.7199 22.4779 60.4088C22.612 43.3836 22.7586 26.3598 22.9011 9.33455C22.9117 8.04314 23.4711 7.04753 24.4735 6.21079C25.3986 5.43746 26.351 5.6334 27.3182 5.89189C27.817 6.02518 27.7566 6.53558 27.7945 6.94756C28.0064 9.33599 29.2677 10.9235 31.4776 11.7666C32.1008 12.0046 32.7663 12.0486 33.435 12.0424C36.4608 12.0144 39.4881 11.9849 42.5138 11.9708C44.0894 11.9632 45.4565 11.449 46.6628 10.2538C47.5163 9.39755 48.0739 8.29609 48.2155 6.99511L48.21 6.99516Z" fill="white"/>
</svg>
