<svg width="12" height="31" viewBox="0 0 12 31" fill="none" xmlns="http://www.w3.org/2000/svg">
<path d="M5.90696 0.0907585C7.03579 0.0907585 8.16462 0.0981855 9.29344 0.0854535C9.5437 0.0822705 9.66511 0.153358 9.74924 0.39845C10.861 3.62178 11.632 6.91514 11.7928 10.3316C11.8333 11.1867 11.5277 11.9666 11.139 12.7104C10.3392 14.2393 9.10495 15.3416 7.61405 16.166C6.9048 16.5586 6.57894 17.1655 6.57148 17.9114C6.54379 20.5448 6.55338 23.1782 6.56509 25.8116C6.56722 26.2711 6.77914 26.6742 7.06774 27.036C7.39893 27.4509 7.8888 27.3512 8.3169 27.4254C9.18482 27.5771 10.0506 27.7533 10.7662 28.288C11.648 28.9469 11.5404 28.9915 10.73 29.4901C9.94838 29.9697 9.05703 30.1575 8.16249 30.2657C6.34998 30.4843 4.53427 30.4907 2.73667 30.1193C1.95607 29.958 1.20104 29.7129 0.556752 29.209C0.307559 29.0148 0.309688 28.8535 0.526934 28.635C1.23192 27.9241 2.13285 27.6355 3.07531 27.436C3.33409 27.3809 3.59819 27.3512 3.86017 27.3098C4.67377 27.1793 5.19666 26.6403 5.20198 25.8201C5.21795 23.1475 5.22541 20.4737 5.19453 17.8011C5.18707 17.1135 4.85375 16.5501 4.20733 16.1894C2.50984 15.2408 1.15631 13.9623 0.367195 12.147C-0.0332193 11.2249 -0.0428036 10.2722 0.0445207 9.30558C0.317143 6.26687 1.01893 3.32152 2.01571 0.44089C2.10942 0.170334 2.23402 0.0790875 2.52048 0.0833315C3.64931 0.100308 4.77814 0.0896975 5.90696 0.0907585Z" fill="#FF4D46"/>
</svg>
