<svg width="47" height="142" fill="none" xmlns="http://www.w3.org/2000/svg"><path d="M41.03.47a.75.75 0 0 0-1.06 0l-4.773 4.773a.75.75 0 1 0 1.06 1.06L40.5 2.061l4.243 4.242a.75.75 0 0 0 1.06-1.06L41.03.47ZM41.25 142V1h-1.5v141h1.5ZM8.321 132.536H18v.999h-4.512v5.93H18v.999H8.321v-.999H12.5v-5.93H8.321v-.999Zm8.798-6.048c0-.938-.28-1.686-.838-2.245-.558-.558-1.307-.838-2.245-.838h-.88v1.214c0 .852.06 1.561.182 2.127.115.566.272 1.017.473 1.354.2.336.43.573.687.709.265.136.552.207.86.214.436 0 .84-.214 1.213-.644.365-.423.548-1.053.548-1.891Zm-8.905-.548c0-.53.082-1.009.247-1.439.172-.43.408-.802.709-1.117a3.06 3.06 0 0 1 1.074-.709 3.56 3.56 0 0 1 1.375-.258H18v.666l-1.429.322v.118c.294.208.552.448.774.72.207.251.386.566.537.945.157.38.233.849.225 1.408 0 1.103-.261 1.948-.784 2.535-.53.587-1.185.881-1.966.881a2.73 2.73 0 0 1-1.235-.29c-.387-.194-.727-.502-1.02-.924-.287-.423-.513-.974-.677-1.654-.172-.681-.258-1.522-.258-2.525v-1.214h-.548c-.716 0-1.3.229-1.75.688-.445.451-.667 1.067-.667 1.847 0 .781.168 1.375.505 1.784.337.408.756.694 1.257.859v.988a3.148 3.148 0 0 1-1.923-1.128 3.686 3.686 0 0 1-.602-1.085 4.147 4.147 0 0 1-.225-1.418Zm4.726-10.559c.13-.322.298-.616.505-.881a2.71 2.71 0 0 1 .71-.602c.293-.186.658-.279 1.095-.279.38 0 .745.079 1.096.236.343.151.648.369.913.656.258.286.465.623.623 1.01.15.386.225.816.225 1.289 0 .53-.075 1.002-.225 1.418a3.36 3.36 0 0 1-.645 1.074 3.18 3.18 0 0 1-.945.719 3.302 3.302 0 0 1-1.15.312v-.999c.617-.115 1.1-.369 1.45-.763.352-.401.527-.988.527-1.761 0-.659-.186-1.189-.558-1.59-.373-.408-.81-.613-1.311-.613-.437 0-.838.19-1.203.57-.373.372-.559.916-.559 1.633v.988H12.5v-.881c0-.351-.05-.659-.15-.924a2.296 2.296 0 0 0-.387-.655 1.415 1.415 0 0 0-.526-.387 1.603 1.603 0 0 0-.591-.118c-.437 0-.82.168-1.15.505-.33.336-.494.863-.494 1.579 0 .659.168 1.182.505 1.568.337.38.756.627 1.257.742v.988a2.862 2.862 0 0 1-1.031-.29 2.71 2.71 0 0 1-.881-.698 3.528 3.528 0 0 1-.602-1.021 3.387 3.387 0 0 1-.236-1.289c0-.473.071-.899.215-1.278.136-.38.322-.702.558-.967.23-.265.498-.469.806-.612.308-.151.623-.226.945-.226.423 0 .77.082 1.042.247.272.158.498.333.677.526.208.237.369.495.483.774Zm4.18-7.154c0-.939-.28-1.687-.839-2.246-.558-.558-1.307-.837-2.245-.837h-.88v1.213c0 .853.06 1.562.182 2.127.115.566.272 1.017.473 1.354.2.336.43.573.687.709.265.136.552.208.86.215.436 0 .84-.215 1.213-.645.365-.422.548-1.053.548-1.89Zm-8.906-.548c0-.53.082-1.01.247-1.44.172-.429.408-.802.709-1.117a3.06 3.06 0 0 1 1.074-.709 3.56 3.56 0 0 1 1.375-.258H18v.666l-1.429.323v.118c.294.207.552.447.774.719.207.251.386.566.537.946.157.379.233.848.225 1.407 0 1.103-.261 1.948-.784 2.535-.53.587-1.185.881-1.966.881a2.73 2.73 0 0 1-1.235-.29c-.387-.193-.727-.501-1.02-.924-.287-.422-.513-.974-.677-1.654-.172-.681-.258-1.522-.258-2.525v-1.213h-.548c-.716 0-1.3.229-1.75.687-.445.451-.667 1.067-.667 1.848 0 .78.168 1.375.505 1.783a2.68 2.68 0 0 0 1.257.859v.989a3.165 3.165 0 0 1-1.923-1.128 3.7 3.7 0 0 1-.602-1.085 4.151 4.151 0 0 1-.225-1.418Zm8.798-15.072h3.523v.989H18v8.142h2.535v.989h-3.523v-.548a2.177 2.177 0 0 0-.484-.645 3.107 3.107 0 0 0-.72-.472c-.3-.151-.669-.255-1.106-.312l-6.38-.666v-6.048h8.69v-1.429Zm-2.31 7.155c.437.043.806.132 1.107.268.3.129.54.265.72.408.207.165.368.341.483.527v-5.94H9.31v4.178l5.392.559Z" fill="#fff"/></svg>