<svg width="47" height="142" fill="none" xmlns="http://www.w3.org/2000/svg"><path d="M39.97 141.53a.75.75 0 0 0 1.06 0l4.773-4.773a.75.75 0 1 0-1.06-1.06l-4.243 4.242-4.243-4.242a.75.75 0 0 0-1.06 1.06l4.773 4.773ZM39.75 0v141h1.5V0h-1.5ZM17.012 43.88h3.523v.99H18v8.142h2.535V54h-3.523v-.548a2.177 2.177 0 0 0-.484-.644 3.13 3.13 0 0 0-.72-.473c-.3-.15-.669-.254-1.106-.312l-6.38-.666V45.31h8.69v-1.43Zm-2.31 7.155c.437.043.806.133 1.107.269.3.129.54.265.72.408.207.165.368.34.483.526v-5.94H9.31v4.179l5.392.558Zm2.417-12.224c0-.939-.28-1.687-.838-2.246-.558-.558-1.307-.837-2.245-.837h-.88v1.213c0 .853.06 1.562.182 2.127.115.566.272 1.017.473 1.354.2.337.43.573.687.709.265.136.552.208.86.215.436 0 .84-.215 1.213-.645.365-.422.548-1.053.548-1.89Zm-8.905-.548c0-.53.082-1.01.247-1.44a3.46 3.46 0 0 1 .709-1.117c.3-.308.659-.544 1.074-.709a3.562 3.562 0 0 1 1.375-.258H18v.666l-1.429.322v.119c.294.207.552.447.774.72.207.25.386.565.537.945.157.38.233.848.225 1.407 0 1.103-.261 1.948-.784 2.535-.53.587-1.185.881-1.966.881-.436 0-.848-.097-1.235-.29-.387-.193-.727-.501-1.02-.924-.287-.422-.513-.974-.677-1.654-.172-.68-.258-1.522-.258-2.525v-1.214h-.548c-.716 0-1.3.23-1.75.688-.445.451-.667 1.067-.667 1.848 0 .78.168 1.375.505 1.783.337.408.756.695 1.257.86v.988a3.16 3.16 0 0 1-1.923-1.128 3.693 3.693 0 0 1-.602-1.085 4.15 4.15 0 0 1-.225-1.418Zm.107-13.976H18v.988H9.31v4.405l5.392.44c1.218.1 2.091.383 2.621.849.523.458.784 1.02.784 1.686a2.407 2.407 0 0 1-.043.462.77.77 0 0 1-.064.194h-.88v-.44c0-.438-.194-.82-.58-1.15-.388-.337-1-.541-1.838-.613l-6.38-.547v-6.274Zm7.262-11.01c.308.128.612.315.913.558a4.267 4.267 0 0 1 1.397 1.976c.143.423.214.9.214 1.43a4.482 4.482 0 0 1-1.407 3.297c-.437.408-.956.73-1.557.967a5.391 5.391 0 0 1-1.988.354 5.36 5.36 0 0 1-1.976-.354 4.952 4.952 0 0 1-1.558-.956A4.512 4.512 0 0 1 8.58 19.12a4.117 4.117 0 0 1-.365-1.772c0-.602.114-1.168.344-1.698a4.397 4.397 0 0 1 .977-1.407 4.67 4.67 0 0 1 3.298-1.289c.115 0 .215.007.3.022.087.014.17.028.248.043l.215.043v7.81a4.653 4.653 0 0 0 1.45-.388c.43-.2.798-.458 1.106-.773.308-.315.548-.68.72-1.096.172-.415.254-.873.247-1.375 0-.35-.046-.673-.14-.967a2.943 2.943 0 0 0-.375-.784 3.118 3.118 0 0 0-.505-.58 7.037 7.037 0 0 0-.516-.419v-1.214Zm-6.38 4.07c0 .438.082.853.246 1.247.172.386.408.734.71 1.042.3.308.658.57 1.073.784a4.7 4.7 0 0 0 1.375.451v-6.929a4.25 4.25 0 0 0-1.375.387c-.415.2-.773.448-1.074.741-.3.301-.537.648-.709 1.042a3.12 3.12 0 0 0-.247 1.236ZM15.582 2.6c.308.129.612.315.913.558a4.269 4.269 0 0 1 1.397 1.977c.143.422.214.899.214 1.428A4.483 4.483 0 0 1 16.7 9.86c-.437.409-.956.73-1.557.967a5.389 5.389 0 0 1-1.988.355 5.359 5.359 0 0 1-1.976-.355 4.954 4.954 0 0 1-1.558-.956A4.512 4.512 0 0 1 8.58 8.442a4.117 4.117 0 0 1-.365-1.772c0-.602.114-1.167.344-1.697a4.398 4.398 0 0 1 .977-1.408 4.671 4.671 0 0 1 3.298-1.289c.115 0 .215.008.3.022.087.014.17.028.248.043l.215.043v7.81a4.651 4.651 0 0 0 1.45-.387c.43-.2.798-.459 1.106-.774.308-.315.548-.68.72-1.095.172-.416.254-.874.247-1.375 0-.351-.046-.674-.14-.967a2.945 2.945 0 0 0-.375-.784 3.122 3.122 0 0 0-.505-.58 7.027 7.027 0 0 0-.516-.42V2.6Zm-6.38 4.07c0 .438.082.853.246 1.247.172.387.408.734.71 1.042.3.308.658.57 1.073.784.416.215.874.365 1.375.451V3.265c-.5.057-.96.186-1.375.386-.415.2-.773.448-1.074.742-.3.3-.537.648-.709 1.042a3.12 3.12 0 0 0-.247 1.235Z" fill="#fff"/></svg>