<svg width="109" height="16" fill="none" xmlns="http://www.w3.org/2000/svg"><path d="M108.354 8.354a.5.5 0 0 0 0-.708l-3.182-3.182a.501.501 0 0 0-.708.708L107.293 8l-2.829 2.828a.5.5 0 0 0 .708.708l3.182-3.182ZM0 8.5h5.4v-1H0v1Zm16.2 0H27v-1H16.2v1Zm21.6 0h10.8v-1H37.8v1Zm21.6 0h10.8v-1H59.4v1Zm21.6 0h10.8v-1H81v1Zm21.6 0h5.4v-1h-5.4v1Zm6.107.207a1 1 0 0 0 0-1.414L102.343.929a1 1 0 1 0-1.414 1.414L106.586 8l-5.657 5.657a1 1 0 1 0 1.414 1.414l6.364-6.364ZM0 9h5.4V7H0v2Zm16.2 0H27V7H16.2v2Zm21.6 0h10.8V7H37.8v2Zm21.6 0h10.8V7H59.4v2ZM81 9h10.8V7H81v2Zm21.6 0h5.4V7h-5.4v2Z" fill="#fff"/></svg>