<svg width="45" height="42" fill="none" xmlns="http://www.w3.org/2000/svg"><path d="M25.392 27.904c1.167-.731 2.247-1.412 3.332-2.084 1.745-1.08 3.845-.176 4.153 1.818.157 1.016-.253 1.87-1.115 2.439a212.106 212.106 0 0 1-6.043 3.876c-1.907 1.168-4.224.04-4.607-2.193-.26-1.52-.533-3.037-.784-4.559-.056-.342-.208-.586-.555-.631-.333-.043-.541.165-.659.461-.507 1.287-.646 2.623-.526 3.986.186 2.099.93 4.015 2.014 5.822.687 1.145.548 2.453-.318 3.358a2.818 2.818 0 0 1-3.263.61 2.452 2.452 0 0 1-.957-.795c-2.144-3.01-3.082-6.335-2.817-10.003.159-2.206.759-4.317 1.323-6.437.051-.19.07-.373.07-.565 0-2.12-.002-4.239 0-6.358 0-.668-.19-1.26-.703-1.717-2.328-2.07-3.677-4.701-4.566-7.595a16.998 16.998 0 0 1-.597-2.552c-.23-1.585.77-2.867 2.351-3.037 1.511-.163 2.769.937 2.924 2.498.202 2.037.86 3.908 2.261 5.48.32.36.68.588 1.178.691 1.779.37 3.546.789 5.317 1.196.626.145 1.228-.051 1.837-.112.615-.062 1.222-.193 1.837-.252.36-.035.379-.16.268-.452-.502-1.325-1-2.652-1.474-3.987-.503-1.42.302-2.774 1.8-3.078.989-.2 2.127.343 2.515 1.316.971 2.443 1.932 4.89 2.811 7.366.524 1.474-.581 2.952-2.181 3.126-1.568.17-3.133.37-4.698.565-.556.069-.818.343-.824.88-.028 2.437-.102 4.877-.04 7.314.03 1.2.487 2.357.732 3.606l.004-.001Zm-5.023-17.72c2.262.009 4.114-1.78 4.128-3.986.015-2.182-1.86-4.02-4.102-4.026-2.226-.005-4.084 1.8-4.087 3.975-.004 2.233 1.802 4.028 4.06 4.037ZM6.547 21.454c.526.398 1.007.387 1.325-.031.3-.392.192-.86-.296-1.238-.65-.503-1.315-.99-1.96-1.501-.317-.252-.648-.38-1.03-.206-.407.188-.497.548-.494.958.008 1.146-.007 2.294.008 3.44.005.369.01.627-.509.444-.246-.087-.55-.04-.824-.03-1.428.048-2.552 1.46-2.254 2.823.304 1.39 1.427 2.11 3.043 1.953 1.22-.119 2.18-1.196 2.186-2.472.007-1.543 0-3.088 0-4.755l.807.616-.002-.001Zm33.298-7.208c-1.007-.208-2.224.301-2.802 1.173-.5.756-.46 1.804.097 2.559.656.886 1.947 1.258 3.118.898 1.08-.332 1.746-1.226 1.751-2.38.008-1.385 0-2.771.004-4.156 0-.147-.06-.312.085-.475.248.188.487.373.732.552.482.352.939.337 1.254-.036.328-.387.244-.847-.246-1.235-.659-.52-1.332-1.022-1.995-1.536-.312-.241-.632-.39-1.03-.197-.397.194-.459.532-.456.921.01 1.321.004 2.642.004 4.027-.2-.046-.359-.084-.516-.116v.001ZM39.635.918c-.373 1.03-1.066 1.691-2.105 2.08 1.036.382 1.725 1.051 2.115 2.073.386-1.022 1.092-1.675 2.107-2.085C40.68 2.621 40.05 1.9 39.633.918h.002ZM2.3 2.691C2.04 3.495 1.564 3.92.758 4.21c.845.234 1.252.74 1.582 1.49.25-.81.737-1.222 1.522-1.504-.804-.267-1.254-.732-1.56-1.503Zm6.051 36.581c.255-.797.744-1.222 1.514-1.521-.794-.269-1.246-.716-1.519-1.476-.301.735-.71 1.224-1.427 1.486.698.255 1.131.738 1.432 1.511Zm30.093-8.189c-.228-.226-.355-.551-.592-.942-.206.794-.746 1.17-1.376 1.515.752.19 1.105.73 1.436 1.45.265-.768.708-1.22 1.483-1.464-.407-.23-.733-.341-.952-.557l.001-.002Z" fill="#FF4D46"/></svg>