<svg width="33" height="42" fill="none" xmlns="http://www.w3.org/2000/svg"><path d="M16.82 29.95c.055-1.332.04-2.84.218-4.34.093-.777-.159-1.294-.714-1.544-.805-.361-1.69.177-1.77 1.096-.305 3.494-.307 6.986.056 10.478.171 1.655.435 3.292.909 4.89.06.203.03.271-.175.313a6.396 6.396 0 0 1-3.229-.198c-.103-.033-.2-.067-.205-.185-.035-.675-.4-1.238-.644-1.838-.564-1.385-.785-2.844-1.007-4.301a24.392 24.392 0 0 1-.277-4.251c.073-3.108.81-6.037 2.379-8.745.195-.338.36-.682.27-1.088-.116-.507-.488-.869-.98-.957-.574-.101-1.03.097-1.346.622a18.968 18.968 0 0 0-1.622 3.426c-1.042 2.91-1.37 5.91-1.143 8.979.155 2.114.453 4.204 1.055 6.243.096.326.213.649.354.958.131.29.054.367-.252.357a7.07 7.07 0 0 1-4.14-1.477C2.42 36.76 1.164 34.564.688 31.986c-.867-4.708.294-8.894 3.578-12.46 1.466-1.593 3.132-2.972 4.75-4.403.996-.882 1.971-1.784 2.868-2.77 1.041-1.147 1.54-2.495 1.73-4 .238-1.886.188-3.777.198-5.667 0-.184-.007-.37.01-.554.085-.932.857-1.434 1.75-1.121a153.8 153.8 0 0 1 3.387 1.232c.565.213.866.631.863 1.246-.005 1.281-.02 2.56-.006 3.842.009.91.102 1.814.277 2.71.244 1.247 1.027 2.171 1.875 3.05 1.63 1.685 3.42 3.211 5.044 4.904 1.741 1.814 3.34 3.735 4.21 6.123 1.42 3.889 1.623 7.808-.035 11.676-.884 2.064-2.47 3.422-4.717 3.938-.32.072-.654.083-.98.124-.333.042-.391-.113-.315-.398.293-1.114.465-2.25.61-3.391.23-1.84.299-3.688.228-5.535-.098-2.605-.455-5.175-1.283-7.664a16.958 16.958 0 0 0-.961-2.32c-.358-.708-1.064-.975-1.721-.663-.642.303-.877 1.037-.523 1.747 1.618 3.24 2.095 6.696 2.024 10.264-.056 2.724-.545 5.39-.988 8.068-.123.744-.465.947-1.101 1.045-1.044.16-2.057.043-3.065-.227-.213-.057-.238-.228-.292-.38-.507-1.428-.764-2.91-.948-4.404-.24-1.95-.306-3.91-.333-6.048h-.002Z" fill="#FF4D46"/></svg>