<svg width="25" height="31" fill="none" xmlns="http://www.w3.org/2000/svg"><path d="M13.116 21.963c.04-1 .029-2.13.163-3.256.069-.583-.12-.97-.536-1.158-.604-.27-1.268.133-1.328.823-.228 2.62-.23 5.239.042 7.858.129 1.241.327 2.469.682 3.668.045.152.023.203-.131.234a4.797 4.797 0 0 1-2.422-.148c-.077-.025-.15-.05-.154-.139-.025-.506-.3-.929-.483-1.379-.422-1.038-.588-2.132-.755-3.225a18.294 18.294 0 0 1-.207-3.189c.054-2.33.607-4.527 1.783-6.558.147-.254.27-.512.203-.816a.91.91 0 0 0-.735-.718c-.43-.076-.772.073-1.01.466a14.227 14.227 0 0 0-1.216 2.57c-.781 2.182-1.028 4.432-.857 6.734.116 1.586.34 3.153.791 4.683.072.244.16.486.266.718.098.218.04.275-.189.268a5.302 5.302 0 0 1-3.106-1.108c-1.602-1.22-2.543-2.868-2.9-4.802-.65-3.53.22-6.67 2.683-9.345 1.1-1.194 2.35-2.228 3.563-3.302.747-.661 1.478-1.338 2.15-2.078.782-.86 1.156-1.87 1.298-3 .178-1.414.141-2.832.15-4.25 0-.138-.006-.277.006-.415.064-.699.643-1.075 1.313-.84.85.297 1.698.606 2.54.923.424.16.65.474.648.935-.005.96-.015 1.92-.006 2.881.007.683.077 1.361.209 2.032.183.936.77 1.63 1.406 2.288 1.223 1.264 2.565 2.409 3.783 3.678 1.306 1.361 2.505 2.802 3.158 4.593 1.064 2.916 1.216 5.855-.027 8.757-.663 1.547-1.853 2.566-3.538 2.953-.24.054-.49.062-.735.093-.25.032-.293-.085-.236-.299.22-.835.349-1.686.457-2.543.174-1.38.225-2.765.172-4.151-.074-1.954-.341-3.881-.963-5.748a12.692 12.692 0 0 0-.72-1.74c-.27-.53-.798-.731-1.292-.497-.481.227-.657.777-.391 1.31 1.213 2.43 1.57 5.022 1.517 7.698-.041 2.043-.408 4.043-.74 6.051-.093.558-.35.71-.826.784-.783.12-1.543.032-2.3-.17-.159-.043-.177-.172-.218-.286-.38-1.07-.573-2.181-.711-3.302-.18-1.463-.23-2.933-.25-4.536h-.001Z" fill="#FF4D46"/></svg>