<svg width="28" height="25" fill="none" xmlns="http://www.w3.org/2000/svg"><path d="M27.999 20.306v1.022c-.053.048-.045.114-.056.175a4.15 4.15 0 0 1-1.27 2.353c-.86.809-1.895 1.145-3.079 1.143-4.5-.011-9-.004-13.498-.005-2.04 0-4.082.022-6.12-.018-1.34-.026-2.423-.633-3.177-1.718-1.036-1.492-1.047-3.046-.135-4.604 2.324-3.972 4.652-7.942 6.985-11.909.976-1.658 1.898-3.348 2.944-4.963C11.647.154 13.94-.453 15.716.357c.884.404 1.53 1.04 2.012 1.863 2.438 4.166 4.88 8.33 7.322 12.494.518.884 1.04 1.766 1.554 2.652.546.943 1.187 1.842 1.396 2.94h-.001ZM15.553 9.235h-.01c0-.153.012-.306-.002-.456-.052-.592-.347-1.034-.896-1.28s-1.087-.196-1.567.17c-.598.456-.706 1.089-.643 1.785.062.706.105 1.412.148 2.119.093 1.512.174 3.024.273 4.535.04.62.532 1.034 1.175 1.027a1.133 1.133 0 0 0 1.13-1.056c.013-.205.002-.412.015-.618.124-2.075.25-4.15.376-6.226Zm-3.088 10.518a1.541 1.541 0 0 0 1.54 1.523c.835 0 1.538-.694 1.525-1.504-.013-.877-.701-1.572-1.536-1.555-.85.017-1.532.702-1.53 1.536Z" fill="#FE9C2C"/></svg>