<svg width="30" height="27" fill="none" xmlns="http://www.w3.org/2000/svg"><path d="M30 20.55v1.327c-.02.044-.05.086-.056.131-.398 2.888-2.732 4.987-5.57 4.989-6.25.005-12.498 0-18.747.003-.343 0-.682-.03-1.018-.094C1.662 26.35-.386 23.474.06 20.417c.297-2.03 1.36-3.502 3.136-4.431.469-.246.978-.376 1.512-.502-.06-.093-.1-.16-.143-.225a4.823 4.823 0 0 1-.805-2.292c-.2-2.345 1.255-4.462 3.487-5.082.25-.07.282-.123.126-.357C5.662 4.976 6.775 1.397 9.599.304c.828-.32 1.68-.31 2.537-.301.58.005.951.366.991.955a6.5 6.5 0 0 0 .232 1.42c.307 1.036.882 1.481 1.927 1.481 1.787 0 3.574-.012 5.36.004 1.899.018 3.244 1.919 2.653 3.763-.109.34-.033.43.245.558 2.07.957 3.164 3.427 2.534 5.67a5.24 5.24 0 0 1-.773 1.597c.073.075.151.082.227.1 2.049.495 3.427 1.77 4.17 3.787.144.393.183.813.298 1.213Zm-15-3.193c-1.502 0-3.005-.002-4.507 0-.849 0-1.255.545-1.035 1.377.645 2.442 2.535 4.094 4.99 4.363 2.855.313 5.516-1.655 6.138-4.538a.937.937 0 0 0 .014-.416c-.113-.502-.473-.784-1.034-.785-1.521-.004-3.043-.001-4.565-.001Zm-1.878-3.847c.012-1.026-.838-1.912-1.854-1.934-.994-.02-1.857.848-1.888 1.9-.03 1.026.853 1.947 1.87 1.949 1.002.002 1.86-.876 1.872-1.915Zm7.5-.004c.006-1.03-.846-1.914-1.86-1.93-.994-.016-1.857.856-1.883 1.904-.025 1.028.86 1.948 1.874 1.945 1.004-.003 1.862-.884 1.869-1.92Z" fill="#FE9C2C"/></svg>