<svg width="15" height="20" fill="none" xmlns="http://www.w3.org/2000/svg"><path d="M6.992 0h1.016c.191.033.383.062.573.1 1.357.267 2.491.925 3.38 1.981.841 1 1.3 2.159 1.361 3.472.027.592.014 1.184.015 1.777 0 .137.042.176.177.173.338-.009.677-.005 1.015-.003.31.003.47.161.47.471 0 3.457.003 6.914-.002 10.37a1.641 1.641 0 0 1-1.648 1.655c-3.9.005-7.798.005-11.698 0a1.641 1.641 0 0 1-1.648-1.654c-.005-3.457-.002-6.914-.001-10.37 0-.31.16-.47.469-.472.312-.002.625.002.937-.001.27-.003.25.046.252-.248.002-.67-.035-1.343.035-2.01a5.698 5.698 0 0 1 1.257-3.055A5.816 5.816 0 0 1 5.908.22C6.264.116 6.633.084 6.992 0Zm.512 7.5c1.047 0 2.094-.004 3.142.003.147 0 .186-.04.182-.185-.01-.364-.003-.728-.003-1.092 0-.351.008-.701-.062-1.049C10.42 3.48 8.81 2.331 7.098 2.53c-1.575.181-2.895 1.59-2.918 3.177-.008.526.003 1.054-.007 1.58-.004.164.028.22.208.218 1.041-.01 2.082-.005 3.123-.005Zm-.022 9.157v-.005c.287 0 .573.011.859-.003.265-.013.428-.21.4-.474-.076-.723-.157-1.446-.246-2.168-.015-.118.006-.19.097-.267.356-.31.543-.702.561-1.177a1.645 1.645 0 0 0-1.984-1.686c-.683.137-1.132.58-1.283 1.265-.14.631.042 1.182.539 1.614.055.048.1.09.09.178-.084.723-.16 1.446-.247 2.168-.04.34.112.543.453.554.253.008.507.001.761.001Z" fill="#FF638E"/></svg>