<svg width="17" height="23" fill="none" xmlns="http://www.w3.org/2000/svg"><path d="M9.237 4.265c-.018.783.053 1.782-.028 2.776-.09 1.12-.633 1.934-1.638 2.377-.84.37-1.392 1.005-1.65 1.916-.154.546-.078 1.103-.045 1.656.074 1.231.157 2.463.236 3.695.078 1.196.16 2.393.232 3.589.022.35.067.703.03 1.055-.105 1.028-.932 1.729-1.943 1.65-.905-.07-1.642-.956-1.583-1.931.115-1.901.243-3.8.364-5.701.068-1.065.143-2.129.194-3.194A2.82 2.82 0 0 0 1.784 9.48C.948 9.093.368 8.479.104 7.554a3.14 3.14 0 0 1-.102-.862C0 4.822 0 2.95.002 1.08.003.474.337.05.836.004c.552-.051 1.01.377 1.013.961.005 1.182-.001 2.365.003 3.547.003.573.369.987.87 1.006.55.021.957-.377.96-.953.005-1.174 0-2.348.003-3.522.001-.58.37-1.013.873-1.04.559-.032.99.405.992 1.021.004 1.192-.002 2.383.003 3.574.002.44.32.831.714.907a.906.906 0 0 0 1.036-.564c.063-.157.082-.32.08-.49-.002-1.13 0-2.26 0-3.39 0-.619.363-1.048.895-1.06.545-.013.95.41.956 1.031.01 1.006.003 2.012.003 3.231v.002Zm7.76-3.58c0-.07-.005-.141.001-.211.014-.156-.055-.196-.195-.184-.38.032-.756.072-1.125.178-2.219.633-3.762 2.588-3.827 4.977-.054 1.966-.019 3.935-.019 5.903 0 .954.483 1.49 1.393 1.56.835.065 1.366.776 1.252 1.642-.11.829-.194 1.662-.287 2.493-.148 1.33-.296 2.66-.44 3.99-.078.713.161 1.292.739 1.68.568.382 1.168.38 1.745.007.562-.364.767-.922.766-1.597-.005-3.38-.003-6.76-.003-10.139V.686Z" fill="#FF638E"/></svg>