<svg width="22" height="20" fill="none" xmlns="http://www.w3.org/2000/svg"><path d="M0 13.166c.056-.23.104-.463.17-.692.45-1.576 2.006-3.025 4.156-2.84 1.678.145 3.16 1.4 3.525 3.247.19.96-.02 1.86-.43 2.725-.535 1.13-1.283 2.111-2.1 3.042-.395.451-.814.88-1.253 1.287-.073.068-.119.098-.208.013-1.257-1.201-2.398-2.498-3.221-4.055-.292-.552-.518-1.13-.605-1.757-.003-.018-.023-.035-.034-.053v-.917Zm2.687.489c.008.713.575 1.287 1.272 1.285a1.3 1.3 0 0 0 1.278-1.307c-.01-.704-.59-1.288-1.28-1.288-.702 0-1.278.593-1.27 1.31Zm11.395-9.533C14.105 1.958 15.6.27 17.6.028c2.108-.256 4.065 1.298 4.364 3.445.136.982-.125 1.871-.56 2.724-.739 1.451-1.777 2.668-2.916 3.804-.117.118-.242.227-.358.346-.064.066-.108.065-.175 0-1.41-1.35-2.69-2.8-3.493-4.622-.242-.547-.391-1.121-.381-1.604v.001Zm5.23-.063a1.289 1.289 0 0 0-1.26-1.321c-.686-.01-1.27.566-1.29 1.275a1.302 1.302 0 0 0 1.267 1.32c.692.011 1.268-.56 1.283-1.274ZM6.757 18.463c-.176 0-.238.043-.229.227.015.29.018.583 0 .873-.012.196.05.24.238.24 2.963-.006 5.928-.004 8.891-.004.202 0 .402-.02.597-.063 1.65-.36 2.651-1.85 2.39-3.553-.199-1.302-1.382-2.406-2.678-2.494-.679-.046-1.36-.01-2.04-.02-.687-.01-1.374.029-2.06-.02-.878-.063-1.618-1-1.5-1.882.129-.96.816-1.574 1.771-1.575 1.046-.002 2.091-.003 3.136.002.142 0 .205-.026.199-.189-.013-.32-.011-.64 0-.96.005-.147-.047-.184-.184-.183-1.08.005-2.162-.019-3.242.007-2.323.057-3.735 2.553-2.585 4.57.571 1.003 1.457 1.527 2.594 1.55 1.238.025 2.477 0 3.716.011.959.01 1.741.959 1.607 1.922-.13.938-.806 1.54-1.75 1.544-1.445.005-2.892.001-4.338.001-1.51 0-3.021.003-4.532-.004h-.001Z" fill="#FF638E"/></svg>