<svg width="20" height="20" fill="none" xmlns="http://www.w3.org/2000/svg"><path d="M10.02 19.054h9.601c.332 0 .373.044.377.37.009.58.011.576-.567.576-6.348-.003-12.696-.002-19.044-.002-.347 0-.382-.038-.387-.38-.005-.377.18-.566.558-.566 3.154.004 6.308.002 9.463.002ZM.554 5.354c-.369 0-.553.182-.553.547 0 .366.032.397.408.397 6.341 0 12.683 0 19.024.002.566 0 .574.004.565-.559-.006-.347-.04-.387-.38-.387H.553Zm1.177 12.163c0 .107.026.194.123.249a.434.434 0 0 0 .606-.227c.163-.442.327-.884.482-1.328.036-.103.07-.143.19-.116a4.99 4.99 0 0 0 2.221.004c.113-.025.17-.01.211.116.148.44.313.874.472 1.31.096.262.235.332.544.265.21-.046.191-.216.191-.376 0-1.286.002-2.571-.003-3.857 0-.135.03-.19.172-.175.117.012.236.004.354.002a.745.745 0 0 0 .723-.583c.036-.166.04-.343-.135-.434-.434-.228-.86-.474-1.358-.548-.65-.095-1.07.172-1.25.812l-.233.81c-.118.418-.319.573-.75.573-.439.001-.878-.002-1.318 0a1.246 1.246 0 0 0-1.24 1.239v1.082c0 .394.003.788 0 1.181H1.73Zm11.652-.006c-.001.116.029.21.135.262a.431.431 0 0 0 .59-.231c.165-.448.332-.895.49-1.346.035-.1.076-.125.182-.101.739.167 1.48.171 2.22.005.126-.029.177.005.22.13.155.451.33.896.488 1.346.089.255.215.233.519.21.185-.013.197-.171.197-.327-.002-1.187-.002-2.374 0-3.561 0-.163-.051-.373.03-.476.087-.11.306-.023.467-.037h.02a.745.745 0 0 0 .726-.578c.038-.167.045-.346-.129-.437-.439-.232-.87-.483-1.377-.552-.646-.087-1.058.179-1.236.808-.08.283-.158.567-.24.85-.11.377-.323.537-.717.539-.453.001-.905-.003-1.358 0-.67.006-1.22.561-1.225 1.234-.003.36 0 .721 0 1.082 0 .393.002.787-.002 1.18ZM11.927 4.867l-.354-1.2c-.313-1.06-.623-2.12-.94-3.178C10.54.171 10.301 0 9.998 0c-.301 0-.532.176-.636.49-.047.142-.088.286-.13.43l-1.16 3.947h3.855Zm-.704-4.03c.383 1.304.767 2.607 1.146 3.911.032.11.085.136.193.136.852-.005 1.705-.002 2.557-.004.046 0 .105.027.147-.04-1.34-1.354-2.678-2.71-4.038-4.084-.003.056-.008.07-.005.082ZM8.747.777 4.693 4.882c.972 0 1.888-.002 2.804.001.12 0 .113-.09.133-.157.19-.638.374-1.278.562-1.917.196-.669.395-1.337.592-2.006L8.747.778Zm3.159-.005c.007.01.014.023.023.032 1.313 1.33 2.626 2.657 3.937 3.988.073.073.148.09.244.09.807-.002 1.613 0 2.419-.003.046 0 .103.027.15-.038L11.923.739l-.018.033ZM8.07.742l-6.75 4.1c.894.039 1.77.038 2.648.04.087 0 .127-.059.176-.109.555-.558 1.102-1.125 1.664-1.675.778-.762 1.568-1.511 2.353-2.266l-.09-.09Zm.733 13.877 2.37-1.182c.05-.025.086-.052.086-.117-.002-.338-.001-.676-.001-1.014-.03 0-.045-.005-.055 0-.79.393-1.58.788-2.372 1.18-.07.034-.094.076-.093.152.003.327.001.655.001.987.028-.002.049 0 .064-.006Zm-.007 3.279 2.369-1.18c.044-.023.094-.041.093-.11-.002-.343 0-.686 0-1.058-.833.417-1.633.818-2.434 1.217-.05.025-.086.052-.086.116.002.338.001.676.001 1.015.032 0 .046.005.056 0Zm.026-2.768c-.05.024-.084.05-.084.116.003.338.002.675.002 1.02.04-.006.06-.005.077-.013.783-.391 1.565-.783 2.348-1.172.067-.034.095-.074.095-.15-.003-.327-.002-.653-.002-1.018L8.822 15.13Zm2.356-3.332c.05-.025.081-.054.08-.118-.002-.338 0-.675 0-1.01-.035 0-.05-.005-.06 0l-2.367 1.18c-.057.028-.094.057-.093.13.003.333.002.665.002 1.035l2.438-1.218Zm.044-2.772L8.816 10.22c-.043.022-.077.042-.077.098v1.059l2.45-1.224c.045-.023.07-.054.069-.107v-1.01c-.024-.008-.032-.013-.037-.011Zm-2.292.619 2.242-1.12c.058-.028.09-.064.087-.134a5.224 5.224 0 0 1 0-.374c.003-.107-.072-.178-.144-.218-.063-.035-.098.068-.14.112a1.323 1.323 0 0 1-1.954-.002c-.042-.044-.075-.147-.14-.11-.072.04-.143.111-.142.22.002.562 0 1.124 0 1.716l.19-.09ZM2.835 8.443c0 1.625-.001 3.25.002 4.875 0 .099-.068.242.15.23.319-.018.32-.004.32-.224 0-1.56-.005-3.119.005-4.678.002-.221-.027-.361-.281-.362-.056 0-.112-.031-.196-.057v.216ZM14.702 8.3c-.206-.005-.22.105-.219.272.006 1.566.003 3.132.003 4.698 0 .274 0 .265.28.276.153.005.197-.036.196-.193-.006-1.65-.004-3.302-.004-4.953v-.167c-.095.026-.177.07-.257.067ZM4.613 13.261c.073-.318.165-.632.27-.94.181-.525.55-.844 1.098-.953.325-.065.636.003.95.07.049.011.135.084.152-.028.071-.487-.197-.782-.592-.782-.93 0-1.776.623-2.075 1.546-.123.379-.232.761-.347 1.142-.046.151.02.227.2.227.202.051.294-.063.344-.28v-.002Zm11.544-1.312c-.213.476-.313.994-.472 1.492-.011.034-.032.07.02.097.185.097.489-.03.546-.233.092-.32.175-.642.277-.958.177-.546.552-.872 1.117-.98.324-.064.636.004.95.075.044.01.127.084.142-.045.066-.543-.268-.807-.65-.772-.893.076-1.561.497-1.93 1.323Zm-5.095 5.338c-.72.358-1.438.718-2.157 1.078-.035.017-.069.04-.105.052-.055.02-.062.061-.059.11.006.073.064.053.104.053.767.001 1.534 0 2.3.002.064 0 .114-.004.114-.091-.003-.424-.001-.848-.001-1.273-.088-.006-.14.04-.195.069Zm-9.38-3.505c-.577.037-1.11.572-1.127 1.149-.013.413.001.826-.006 1.24-.002.128.049.14.153.113a.724.724 0 0 0 .554-.74c-.027-.719.196-1.313.86-1.763-.188 0-.312-.007-.435.001Zm11.772-.002a1.245 1.245 0 0 0-1.25 1.246c-.003.374.004.748-.004 1.122-.003.14.036.17.17.131a.727.727 0 0 0 .539-.752c-.025-.713.201-1.3.825-1.723-.103-.043-.194-.023-.28-.023Zm2.627-7.008c-.357 0-.402.058-.323.416.002.013.009.025.012.037a.876.876 0 0 0 1.009.64c.453-.09.747-.511.701-.991-.009-.094-.05-.104-.123-.103-.249.002-.497.001-.746.001h-.53Zm-2.196 0c-.365 0-.415.064-.329.427l.007.018a.877.877 0 0 0 1.022.645.9.9 0 0 0 .691-1c-.013-.104-.07-.09-.134-.09h-1.256Zm-2.213 0c-.357 0-.402.058-.323.416.003.013.009.025.013.037a.876.876 0 0 0 1.008.64c.453-.09.747-.511.702-.991-.01-.094-.05-.104-.124-.103-.248.002-.497.001-.745.001h-.53ZM9.255 6.77c-.074 0-.118.007-.124.102-.023.369.09.674.412.873.298.183.61.183.91.001.323-.197.435-.503.414-.871-.005-.092-.045-.106-.121-.105-.249.003-.497.001-.746.001h-.745V6.77Zm-1.99 0c-.359 0-.403.057-.325.416a.875.875 0 0 0 1.058.667.896.896 0 0 0 .664-.999c-.014-.089-.063-.083-.121-.083H7.265Zm-2.215 0c-.362 0-.369.009-.321.37a.876.876 0 0 0 1.038.722.9.9 0 0 0 .692-1c-.013-.102-.069-.091-.134-.091H5.05Zm13.236 0c-.357 0-.402.058-.324.417.003.013.009.025.013.037a.876.876 0 0 0 1.008.64c.453-.09.747-.51.702-.991-.01-.094-.05-.104-.123-.103-.249.002-.497.001-.746.001h-.53ZM.453 6.773c-.059 0-.141-.026-.137.084.005.123-.012.247.023.37a.878.878 0 0 0 1.01.637c.454-.09.748-.512.701-.992-.009-.094-.052-.102-.125-.101-.248.002-.497 0-.745 0l-.727.001Zm2.403-.002c-.358 0-.403.058-.324.417a.875.875 0 0 0 1.058.666.896.896 0 0 0 .663-1c-.014-.09-.064-.082-.122-.082H2.855ZM16.296.737a.467.467 0 0 0-.443-.5.467.467 0 0 0-.5.443.469.469 0 0 0 .443.5.468.468 0 0 0 .5-.443ZM.553 10.155c0 .267.205.473.471.474a.466.466 0 0 0 .473-.471.465.465 0 0 0-.47-.473.465.465 0 0 0-.474.47Zm18.265-7.243c0 .266.205.472.47.473a.466.466 0 0 0 .474-.47.465.465 0 0 0-.47-.474.465.465 0 0 0-.474.47ZM2.756 1.648a.464.464 0 0 0-.478-.466.464.464 0 0 0-.466.477c.002.264.212.469.477.466a.466.466 0 0 0 .467-.477Z" fill="#FF638E"/></svg>