<svg width="21" height="21" fill="none" xmlns="http://www.w3.org/2000/svg"><path d="M14.908 17.25c.51 0 .985-.004 1.46.002.11.001.173-.04.227-.128a7.6 7.6 0 0 1 .295-.45c.131-.183.337-.23.513-.125a.374.374 0 0 1 .125.53 7.514 7.514 0 0 1-1.236 1.553c-.165.16-.373.158-.526.018-.153-.138-.165-.332-.032-.525l.094-.126c-.422 0-.808.002-1.193-.002-.08 0-.107.05-.137.105a7.328 7.328 0 0 1-1.084 1.518c.122.008.199-.058.285-.09.242-.092.451-.028.539.17.088.199.001.41-.225.517a7.734 7.734 0 0 1-3.012.77c-2.67.115-4.922-.811-6.703-2.811-1.157-1.3-1.809-2.838-1.993-4.573a8.17 8.17 0 0 1 .436-3.636.367.367 0 0 0-.015-.31 2.336 2.336 0 0 0-1.095-1.11c-.203-.1-.404-.201-.607-.3-.158-.08-.265-.193-.26-.38.003-.178.107-.284.256-.358.39-.195.78-.394 1.172-.585a.483.483 0 0 0 .24-.24c.187-.385.385-.765.573-1.15.082-.166.191-.285.391-.28.188.005.29.123.367.28.186.377.376.753.566 1.129.162.32.258.338.509.101a8.133 8.133 0 0 1 4.374-2.16c.15-.024.174-.08.171-.208-.006-.32-.004-.64-.001-.96.002-.299.13-.428.425-.433.216-.004.324-.117.324-.34 0-.273-.14-.41-.418-.41-.468 0-.937.002-1.405 0-.285-.002-.423-.133-.424-.409a98.845 98.845 0 0 1 0-1.43c.001-.277.137-.409.421-.41h2.53c.26 0 .415.141.42.368.003.238-.153.38-.43.381-.663.002-1.327.006-1.99-.003-.165-.003-.21.043-.209.207.005.547-.002.547.544.547.99 0 1.982-.007 2.973.005.201.002.264-.058.238-.248a1.207 1.207 0 0 1 0-.28c.013-.137-.013-.22-.166-.272-.188-.064-.245-.24-.2-.424a.344.344 0 0 1 .356-.28c.544-.005.797-.085.76.708-.018.374 0 .75-.004 1.124-.002.28-.137.413-.42.414-.545.003-1.092.007-1.638-.003-.157-.002-.212.048-.19.198.004.03 0 .063 0 .094.002.14-.043.31.02.414.073.12.258.032.393.05.2.025.332.163.335.379.006.343.006.687 0 1.03-.002.125.035.169.166.19 3.447.581 6.05 3.057 6.788 6.474.318 1.473.21 2.93-.272 4.358-.087.256-.286.371-.5.301-.211-.069-.31-.277-.222-.535.061-.177.015-.207-.155-.204-.563.008-1.124.005-1.686 0-.111 0-.195.007-.218.142-.122.716-.345 1.404-.62 2.11Zm-2.167-4.507h-.004c0 .445.005.89-.004 1.333-.003.13.021.178.16.177.617-.007 1.232-.005 1.848-.001.104 0 .164-.008.178-.142.103-.902.107-1.803 0-2.705-.013-.117-.044-.158-.165-.157-.624.006-1.247.006-1.87 0-.13-.001-.15.044-.148.163.009.444.003.888.003 1.333h.002ZM4.25 11.25c-.312 0-.624.005-.936-.002-.115-.003-.154.032-.175.151a7.377 7.377 0 0 0 0 2.693c.02.11.045.16.168.16.631-.006 1.262-.005 1.893-.001.112 0 .14-.024.127-.145-.098-.901-.098-1.804 0-2.706.015-.139-.028-.154-.142-.152-.312.005-.624.002-.935.002Zm12.508 3c.313 0 .624-.003.937.001.1.001.148-.024.17-.137a7.427 7.427 0 0 0 .005-2.72c-.023-.126-.073-.146-.181-.146-.624.003-1.248.005-1.872 0-.13-.002-.146.038-.133.162.096.894.097 1.791 0 2.686-.016.134.02.158.139.156.312-.005.624-.002.936-.002Zm-6.248-3.75c.398 0 .796-.01 1.194.005.186.007.225-.055.206-.225-.072-.627-.125-1.256-.226-1.88-.02-.123-.065-.152-.178-.151-.67.003-1.342.003-2.013 0-.102 0-.147.026-.165.139-.102.63-.158 1.267-.228 1.902-.018.159.02.22.194.214.405-.013.81-.004 1.216-.004Zm3.218 0c.304 0 .607-.004.911.003.123.003.147-.047.124-.153-.15-.685-.35-1.353-.63-1.997-.033-.077-.076-.103-.157-.103-.475.003-.95.004-1.425 0-.095 0-.112.028-.1.123.092.655.183 1.31.214 1.972.006.116.053.161.174.158.296-.007.592-.002.888-.002ZM7.279 15c-.295 0-.591.004-.887-.002-.12-.003-.173.027-.145.156.148.678.348 1.338.622 1.976.033.079.072.123.169.123.467-.006.934-.006 1.402 0 .125 0 .129-.043.114-.15-.088-.64-.18-1.28-.206-1.927-.006-.141-.066-.183-.203-.178-.288.01-.577.003-.865.003V15Zm10.353-4.5c.002-.033.008-.05.003-.063a7.148 7.148 0 0 0-1.083-2.109c-.034-.046-.071-.078-.134-.077-.495.002-.99 0-1.51 0 .28.71.497 1.407.628 2.128.013.073.04.124.135.124.654-.004 1.308-.002 1.96-.002Zm-7.146-2.998c.289 0 .577-.003.865.002.107.001.164-.018.132-.143-.152-.594-.3-1.191-.6-1.733-.087-.156-.175-.355-.368-.359-.21-.005-.298.203-.387.365-.3.543-.448 1.14-.599 1.734-.026.105.014.137.117.136.28-.005.56-.002.841-.002Zm.027 10.497c-.288 0-.577.003-.865 0-.097-.002-.147.02-.12.13.151.604.3 1.208.608 1.756.264.471.478.468.745-.01.303-.54.448-1.138.601-1.733.03-.12-.017-.147-.128-.145-.28.006-.561.002-.841.002ZM4.749 7.85c-.712-.185-1.13-.658-1.374-1.355-.197.734-.674 1.147-1.366 1.385.704.226 1.166.654 1.348 1.425.196-.367.306-.688.513-.925.214-.247.582-.307.879-.53ZM7.305 18c.487.86 1.122 1.495 1.974 1.914-.228-.608-.429-1.217-.55-1.85-.013-.065-.059-.063-.104-.064h-1.32Zm.008-10.497c.455 0 .86-.007 1.264.003.129.004.149-.058.17-.16a8.577 8.577 0 0 1 .513-1.642c.017-.041.051-.08-.008-.137-.825.443-1.463 1.077-1.94 1.936Zm.184-1.58c-.764.307-1.428.758-2.03 1.305-.1.09-.034.115.04.163.28.181.59.092.887.107.056.003.076-.045.098-.087a8.812 8.812 0 0 1 1.005-1.489ZM18.75 4.98c.193-.39.393-.778.584-1.17a.455.455 0 0 1 .224-.223c.384-.188.763-.387 1.147-.575.165-.08.29-.184.292-.383.001-.2-.124-.304-.29-.385-.383-.188-.763-.385-1.147-.572a.488.488 0 0 1-.24-.24c-.188-.384-.383-.764-.573-1.148-.077-.156-.179-.275-.367-.28-.2-.004-.308.115-.39.28-.189.384-.387.764-.575 1.149a.482.482 0 0 1-.235.24c-.385.188-.765.385-1.15.574-.165.081-.284.188-.28.39.003.19.12.29.277.366.385.188.764.386 1.15.572.119.057.196.14.253.257.188.385.383.766.572 1.15.079.158.188.265.375.27.186-.006.295-.114.373-.272Zm.75 13.73v.796c-.006.67-.537 1.154-1.225 1.117-.615-.034-1.075-.595-1.02-1.247.051-.616.664-1.099 1.294-.985.213.038.207-.04.204-.19a28.056 28.056 0 0 1-.001-.913c.003-.28.136-.41.419-.412.468-.003.936-.003 1.404 0 .272 0 .43.147.424.385-.006.225-.161.36-.423.363-.281.002-.563.015-.842-.005-.204-.013-.248.06-.238.249.017.28.005.562.005.842H19.5Zm-1.118.416a.394.394 0 0 0-.379.372c0 .184.17.362.354.373.19.012.382-.166.39-.36.009-.19-.171-.38-.365-.385Zm-16.87-1.002c0-.054.01-.111-.001-.163-.104-.483.212-.753.525-1.012.156-.129.338-.11.49.031.142.132.178.384.023.502-.31.237-.297.546-.29.876.01.5.004 1 .002 1.5-.002.69-.528 1.18-1.226 1.14-.616-.035-1.076-.6-1.019-1.25.055-.618.669-1.094 1.301-.982.189.033.208-.016.198-.173-.01-.155-.002-.313-.002-.468l-.001-.001Zm-.003 1.745c-.003-.194-.192-.375-.383-.368a.396.396 0 0 0-.361.365.393.393 0 0 0 .37.38.394.394 0 0 0 .374-.377Zm.003-18.317V.471c0-.305.125-.463.367-.467.251-.005.381.155.381.475 0 .71.002 1.421 0 2.132 0 .597-.436 1.092-.994 1.138-.608.05-1.145-.335-1.247-.895A1.131 1.131 0 0 1 .863 1.53c.209-.056.417-.031.65.02v.001ZM1.51 2.634a.391.391 0 0 0-.371-.378.392.392 0 0 0-.373.377c.002.184.173.359.359.367.191.008.38-.17.385-.366Z" fill="#FF638E"/></svg>