<svg width="21" height="19" fill="none" xmlns="http://www.w3.org/2000/svg"><path d="M21 17.538c-.113.293-.33.481-.602.632-.387.214-.765.446-1.143.676a.955.955 0 0 1-.858.093 12949.1 12949.1 0 0 0-17.746-6.07c-.315-.107-.512-.31-.651-.592v-.407c.043-.083.08-.17.13-.248.21-.33.588-.445 1.011-.303 1.077.366 2.151.736 3.227 1.104 1.274.437 2.55.871 3.823 1.314.128.044.209.02.307-.063a434.55 434.55 0 0 1 3.059-2.59c.15-.126.135-.177-.016-.284a194.32 194.32 0 0 1-2.188-1.581c-.452-.33-.839-.713-1.038-1.254-.35-.95.125-2.157 1.034-2.618.077-.039.13-.038.203.01 1.31.873 2.622 1.743 3.967 2.635l-.767.388c.631.458 1.248.907 1.866 1.354.316.23.538.52.595.913.078.53-.115.955-.522 1.295-1.062.887-2.123 1.776-3.184 2.664-.062.052-.12.107-.206.182.176.063.33.121.486.175 2.221.76 4.444 1.519 6.664 2.284.15.051.267.04.399-.045.245-.16.513-.286.751-.455.544-.386 1.177-.223 1.399.424v.366Zm-6.65-11.9L6.193.221a2.164 2.164 0 0 0-.227-.137.81.81 0 0 0-1.124.45c-.14.388.004.74.422 1.017 2.906 1.93 5.812 3.862 8.722 5.786.165.11.247.206.176.406-.033.092-.021.201-.024.303-.017.614.212.976.777 1.137 1.204.343 2.412.674 3.624.99a1.08 1.08 0 0 0 1.313-.755c.162-.555-.13-1.123-.69-1.325-.205-.074-.42-.119-.629-.18-.649-.191-1.338-.278-1.88-.743-.078-.068-.128-.109-.096-.228.067-.248.116-.502.157-.756.057-.345.202-.681.154-1.04-.075-.543-.347-1.01-.624-1.468-.348-.578-1.086-.892-1.749-.758-.603.123-1.1.485-1.683.725.083.06.136.101.191.138l1.6 1.064c.07.045.144.082.12.188-.057.236-.11.473-.169.731l-.203-.13Zm6.477-2.564c.001-1.093-.875-2.01-2.067-1.995-1.126.015-1.978.924-1.977 2.024.001 1.118.922 1.978 1.986 1.994a2 2 0 0 0 2.058-2.023Z" fill="#FF638E"/></svg>