<svg width="12" height="31" fill="none" xmlns="http://www.w3.org/2000/svg"><path d="M5.907.09c1.129 0 2.258.008 3.386-.005.25-.003.372.068.456.313 1.112 3.224 1.883 6.517 2.044 9.934.04.855-.265 1.635-.654 2.378-.8 1.53-2.034 2.632-3.525 3.456-.71.393-1.035 1-1.043 1.745a528.038 528.038 0 0 0-.006 7.9c.002.46.214.863.503 1.225.33.415.82.315 1.249.39.868.151 1.734.327 2.45.862.881.659.773.703-.037 1.202-.782.48-1.673.668-2.568.776-1.812.218-3.628.225-5.425-.147-.78-.161-1.536-.406-2.18-.91-.25-.194-.247-.355-.03-.574.705-.71 1.606-1 2.548-1.199.26-.055.523-.085.785-.126.814-.13 1.337-.67 1.342-1.49.016-2.672.023-5.346-.007-8.019-.008-.688-.341-1.25-.988-1.612-1.697-.948-3.05-2.227-3.84-4.042-.4-.922-.41-1.875-.322-2.841.272-3.04.974-5.984 1.97-8.865.094-.27.219-.362.505-.358C3.65.1 4.778.09 5.907.091Z" fill="#FF4D46"/></svg>