<svg width="16" height="42" fill="none" xmlns="http://www.w3.org/2000/svg"><path d="M7.876.788c1.505 0 3.01.01 4.515-.007.334-.005.496.09.608.417 1.482 4.298 2.51 8.689 2.725 13.244.054 1.14-.354 2.18-.872 3.172-1.066 2.038-2.712 3.508-4.7 4.607-.946.524-1.38 1.333-1.39 2.328a703.975 703.975 0 0 0-.009 10.533c.003.613.286 1.15.67 1.633.442.553 1.095.42 1.666.519 1.157.202 2.312.437 3.266 1.15 1.176.879 1.032.938-.048 1.603-1.043.64-2.231.89-3.424 1.034-2.416.291-4.837.3-7.234-.195-1.04-.215-2.048-.542-2.907-1.214-.332-.259-.33-.474-.04-.765.94-.948 2.142-1.333 3.398-1.599.345-.073.698-.113 1.047-.168 1.085-.174 1.782-.893 1.789-1.986a609.92 609.92 0 0 0-.01-10.693c-.01-.916-.454-1.668-1.316-2.148-2.264-1.265-4.068-2.97-5.12-5.39-.534-1.23-.547-2.5-.43-3.789.363-4.052 1.299-7.979 2.628-11.82.125-.36.29-.482.673-.476C4.866.8 6.37.786 7.876.788Z" fill="#FF4D46"/></svg>